<?xml version="1.0" encoding="utf-8"?>
<!-- Generator: Adobe Illustrator 25.0.0, SVG Export Plug-In . SVG Version: 6.00 Build 0)  -->
<svg version="1.1" id="Capa_1" xmlns="http://www.w3.org/2000/svg" xmlns:xlink="http://www.w3.org/1999/xlink" x="0px" y="0px"
	 viewBox="0 0 1080 440" style="enable-background:new 0 0 1080 440;" xml:space="preserve">
<style type="text/css">
	.st0{fill:#73AF2C;}
	.st1{fill:#67B6FC;}
	.st2{fill:none;}
	.st3{font-family:'CenturyGothic-Bold';}
	.st4{font-size:123.8953px;}
	.st5{letter-spacing:24;}
	.st6{font-size:59.6468px;}
	.st7{letter-spacing:11;}
</style>
<path class="st0" d="M322.86,271.77c-0.02-12.96-0.05-25.92-0.07-38.88c0-0.45,0-0.9-0.01-1.35c0-0.15-0.02-0.3-0.03-0.45
	c-0.01-0.2-0.19-0.4-0.37-0.4c-0.5-0.01-1-0.03-1.5-0.02c-14.12,0.01-28.24,0.02-40.7,0.03c-13.12,0.02-24.58,0.03-36.05,0.05
	c-2.85,0-5.71,0.01-8.56,0.02c-0.35,0-0.7,0.02-1.05,0.04c-0.19,0.01-0.38,0.21-0.39,0.39c-0.01,0.5-0.03,1-0.03,1.5
	c0,6.21,0.01,12.41,0.02,18.62c0.02,16.26,0.04,32.53,0.06,48.79c0,0.35,0,0.7,0.01,1.05c0,0.15,0.03,0.3,0.04,0.45
	c0.01,0.16,0.23,0.37,0.4,0.38c0.45,0.01,0.9,0.03,1.35,0.03c7.91-0.02,15.82-0.04,23.73-0.06c6.76-0.02,13.52-0.03,20.28-0.04
	c7.86-0.01,15.72-0.02,23.58-0.03c1.4,0,2.8-0.07,4.18-0.32c1.73-0.31,3.41-0.77,5.04-1.44c1.58-0.65,3.06-1.49,4.38-2.58
	c3.28-2.67,4.96-6.19,5.52-10.32c0.09-1.3,0.2-2.59,0.19-3.9C322.87,279.48,322.86,275.63,322.86,271.77z"/>
<path class="st1" d="M206.97,300.06c-0.02-11.21-0.04-22.42-0.06-33.63c-0.01,0-0.01,0-0.02,0c-0.01-9.51-0.03-19.01-0.04-28.52
	c0-1.9-0.01-3.8-0.01-5.7c0-0.3-0.02-0.6-0.03-0.9c-0.01-0.2-0.19-0.4-0.36-0.4c-0.45-0.01-0.9-0.03-1.35-0.03
	c-3.45,0-6.91,0.01-10.36,0.01c-22.63,0.02-45.25,0.05-67.88,0.07c-0.4,0-0.8,0-1.2,0.01c-0.1,0-0.21,0.02-0.29,0.08
	c-0.08,0.05-0.16,0.14-0.18,0.23c-0.09,0.5-0.05,1-0.05,1.5c0.02,7.71,0.04,15.41,0.06,23.12c0.02,8.21,0.03,16.41,0.05,24.62
	c0,1,0,2,0.01,3c0,0.95,0.02,1.9,0.15,2.85c0.19,1.39,0.46,2.76,0.89,4.1c0.6,1.87,1.4,3.64,2.56,5.23c1.62,2.25,3.7,3.91,6.28,4.95
	c1.68,0.68,3.43,1.09,5.24,1.22c1,0.07,2,0.1,3,0.1c3.15-0.01,6.31-0.01,9.46-0.02c17.42-0.02,34.84-0.05,52.26-0.07
	c0.45,0,0.9,0,1.35-0.01c0.1,0,0.21-0.03,0.29-0.08c0.08-0.05,0.17-0.14,0.19-0.22C207.02,301.06,206.97,300.56,206.97,300.06z"/>
<path class="st0" d="M206.8,201.47c-0.02-23.52-0.04-47.04-0.06-70.55c0-2.44,0.01-2.44-0.29-4.79c-0.15-1.14-0.42-2.26-0.86-3.33
	c-0.27-0.65-0.59-1.27-1.03-1.83c-1.01-1.3-2.35-1.98-4-2.04c-1.12-0.04-2.19,0.16-3.24,0.5c-1,0.33-1.96,0.75-2.89,1.24
	c-1.56,0.82-3.02,1.78-4.39,2.87c-0.79,0.62-1.59,1.21-2.43,1.76c-0.67,0.44-1.33,0.9-1.99,1.35c-7.52,5.14-14.99,10.34-22.46,15.55
	c-13.05,9.11-26.08,18.23-39.12,27.34c-6.11,4.27-12.21,8.56-18.32,12.83c-0.41,0.29-0.83,0.57-1.22,0.87
	c-0.15,0.12-0.29,0.28-0.38,0.45c-0.3,0.58-0.54,1.18-0.73,1.8c-0.38,1.22-0.48,2.45-0.29,3.71c0.04,0.25,0.1,0.49,0.18,0.73
	c0.35,1.03,0.97,1.85,1.83,2.51c0.52,0.4,1.08,0.72,1.68,0.98c0.87,0.39,1.79,0.66,2.72,0.83c1.13,0.21,2.27,0.39,3.43,0.38
	c0.5,0,1,0.02,1.5,0.03c1.6,0.02,3.2,0.03,4.81,0.04c1.8,0.01,3.6,0.02,5.41,0.03c0.3,0,0.6,0.02,0.9,0.03
	c0.19,0.01,0.4,0.2,0.4,0.37c0.01,0.3,0.03,0.6,0.03,0.9c0,1.95,0,3.9,0.01,5.85c0,0.4,0,0.8,0.01,1.2c0,0.1,0.01,0.2,0.06,0.29
	c0.04,0.08,0.13,0.17,0.21,0.2c0.49,0.12,1,0.07,1.49,0.07c12.87-0.01,25.73-0.02,38.6-0.03c0-0.01,0-0.01,0-0.02
	c8.76,0,17.52,0,26.28,0c4.05,0,8.11-0.01,12.16-0.01c0.45,0,0.9,0,1.35-0.01c0.1,0,0.2-0.02,0.3-0.03c0.1-0.01,0.28-0.19,0.3-0.29
	C206.85,202.67,206.8,202.07,206.8,201.47z"/>
<path class="st1" d="M345.55,186.73c-0.02-0.2-0.06-0.4-0.12-0.59c-0.31-1.07-0.81-2.04-1.47-2.93c-0.15-0.2-0.34-0.37-0.56-0.49
	c-0.22-0.12-0.44-0.24-0.66-0.36c-4.49-2.42-8.99-4.83-13.48-7.25c-9.69-5.21-19.38-10.42-29.08-15.63
	c-0.35-0.19-0.7-0.39-1.05-0.58c-0.31-0.16-0.4-0.42-0.4-0.74c0-0.4,0-0.8,0-1.2c-0.01-11.91-0.02-23.82-0.03-35.73
	c0-0.4,0-0.8,0-1.2c0-0.15-0.02-0.3-0.02-0.45c-0.01-0.19-0.19-0.39-0.38-0.39c-0.45-0.01-0.9-0.04-1.35-0.03
	c-6.61,0.01-13.22,0.02-19.82,0.03c-0.35,0-0.7,0-1.05,0.01c-0.1,0-0.21,0-0.29,0.04c-0.09,0.04-0.19,0.12-0.21,0.2
	c-0.1,0.39-0.06,0.79-0.06,1.19c0.01,6.66,0.02,13.31,0.02,19.97c0,0.45-0.02,0.9-0.03,1.35c0,0.04-0.04,0.08-0.08,0.11
	c-0.09,0.07-0.19,0.08-0.28,0.02c-0.29-0.2-0.57-0.4-0.85-0.61c-6.48-5.04-12.95-10.08-19.43-15.13c-1.93-1.51-3.88-3.01-5.8-4.52
	c-0.63-0.5-1.31-0.92-2.04-1.25c-0.5-0.23-1.01-0.45-1.53-0.62c-1.43-0.49-2.89-0.79-4.42-0.7c-1.13,0.07-2.16,0.41-3.1,1.02
	c-0.59,0.38-1.09,0.87-1.52,1.44c-0.64,0.84-1.1,1.78-1.44,2.79c-0.5,1.48-0.77,3-0.88,4.55c-0.09,1.2-0.09,2.4-0.09,3.6
	c0.02,4.9,0.04,9.81,0.04,14.71c0.01,18.11,0.02,36.23,0.03,54.34c0,0.45,0,0.9,0.01,1.35c0,0.1,0.02,0.21,0.07,0.29
	c0.05,0.08,0.14,0.17,0.22,0.19c0.49,0.1,1,0.05,1.5,0.05c14.07-0.01,28.13-0.03,45.23-0.05c3.43-0.01,9.89-0.04,16.35-0.06
	c3.95-0.01,7.91-0.02,11.86-0.03c3.75-0.01,7.51-0.01,11.26-0.02c0.35,0,0.7-0.03,1.05-0.04c0.18-0.01,0.36-0.22,0.37-0.41
	c0.01-0.2,0.02-0.4,0.02-0.6c0-0.6,0-1.2,0-1.8c0-1.75-0.01-3.5-0.01-5.25c0-0.25-0.02-0.5,0.07-0.74c0.03-0.08,0.12-0.19,0.2-0.2
	c0.24-0.04,0.49-0.07,0.74-0.07c2.5-0.01,5.01-0.02,7.51-0.02c1.15,0,2.3-0.01,3.45-0.18c0.25-0.04,0.5-0.05,0.75-0.06
	c1.45-0.09,2.88-0.36,4.29-0.69c1.12-0.26,2.22-0.62,3.25-1.14c0.63-0.32,1.22-0.69,1.75-1.16c0.3-0.27,0.57-0.56,0.8-0.89
	c0.47-0.67,0.77-1.4,0.77-2.23C345.6,187.53,345.58,187.13,345.55,186.73z"/>
<rect x="401.76" y="118.93" class="st2" width="575.24" height="115.06"/>
<text transform="matrix(1 0 0 1 401.7568 210.1172)" class="st1 st3 st4 st5">Clínica</text>
<rect x="407.45" y="257.34" class="st2" width="560.39" height="64.27"/>
<text transform="matrix(1 0 0 1 407.4541 301.2412)" class="st0 st3 st6 st7">Medical Home</text>
</svg>
