<?xml version="1.0" encoding="utf-8"?>
<!-- Generator: Adobe Illustrator 25.0.0, SVG Export Plug-In . SVG Version: 6.00 Build 0)  -->
<svg version="1.1" id="Capa_1" xmlns="http://www.w3.org/2000/svg" xmlns:xlink="http://www.w3.org/1999/xlink" x="0px" y="0px"
	 viewBox="0 0 1080 1080" style="enable-background:new 0 0 1080 1080;" xml:space="preserve">
<style type="text/css">
	.st0{fill:#73AF2C;}
	.st1{fill:#67B6FC;}
</style>
<g>
	<path class="st0" d="M850.3,692.96c-0.08-40.87-0.15-81.73-0.22-122.6c0-1.42,0-2.84-0.02-4.26c0-0.47-0.05-0.94-0.08-1.41
		c-0.04-0.63-0.59-1.25-1.16-1.26c-1.58-0.03-3.15-0.08-4.73-0.08c-44.52,0.03-89.03,0.07-128.33,0.11
		c-41.37,0.06-77.52,0.11-113.67,0.16c-9,0.01-18,0.03-26.99,0.05c-1.1,0-2.2,0.08-3.31,0.14c-0.58,0.03-1.21,0.66-1.22,1.22
		c-0.04,1.58-0.08,3.15-0.08,4.73c0.01,19.57,0.03,39.13,0.06,58.7c0.06,51.28,0.13,102.56,0.19,153.84c0,1.1-0.01,2.21,0.02,3.31
		c0.01,0.47,0.08,0.94,0.12,1.41c0.04,0.52,0.73,1.18,1.28,1.2c1.42,0.04,2.84,0.11,4.25,0.1c24.94-0.06,49.88-0.13,74.82-0.18
		c21.31-0.05,42.62-0.08,63.93-0.12c24.78-0.04,49.57-0.07,74.35-0.11c4.42-0.01,8.82-0.22,13.2-1c5.46-0.98,10.75-2.43,15.88-4.54
		c5-2.05,9.64-4.71,13.82-8.12c10.33-8.42,15.65-19.53,17.4-32.55c0.3-4.09,0.64-8.18,0.61-12.29
		C850.34,717.26,850.32,705.11,850.3,692.96z"/>
	<path class="st1" d="M484.89,782.14c-0.06-35.34-0.12-70.68-0.18-106.03c-0.02,0-0.04,0-0.07,0c-0.05-29.98-0.09-59.96-0.14-89.93
		c-0.01-6-0.02-11.99-0.03-17.99c0-0.95-0.05-1.89-0.08-2.84c-0.02-0.62-0.58-1.26-1.13-1.28c-1.42-0.04-2.84-0.1-4.26-0.1
		c-10.89,0.01-21.78,0.03-32.67,0.04c-71.35,0.07-142.7,0.14-214.04,0.22c-1.26,0-2.53,0.01-3.79,0.04
		c-0.31,0.01-0.66,0.07-0.9,0.24c-0.24,0.16-0.51,0.45-0.56,0.73c-0.29,1.56-0.16,3.15-0.15,4.72c0.06,24.3,0.14,48.6,0.19,72.89
		c0.06,25.88,0.1,51.75,0.15,77.63c0.01,3.16,0.01,6.31,0.02,9.47c0.01,3,0.08,6.01,0.48,8.98c0.59,4.38,1.45,8.71,2.8,12.93
		c1.88,5.89,4.43,11.46,8.07,16.5c5.12,7.08,11.67,12.34,19.79,15.62c5.3,2.14,10.8,3.45,16.52,3.83c3.15,0.21,6.3,0.32,9.46,0.31
		c9.94-0.04,19.89-0.04,29.83-0.06c54.93-0.08,109.86-0.15,164.8-0.23c1.42,0,2.84-0.01,4.26-0.05c0.31-0.01,0.65-0.08,0.9-0.24
		c0.25-0.15,0.54-0.43,0.59-0.69C485.03,785.29,484.89,783.71,484.89,782.14z"/>
	<path class="st0" d="M484.34,471.27c-0.05-74.16-0.12-148.31-0.18-222.47c-0.01-7.69,0.03-7.7-0.91-15.1
		c-0.46-3.6-1.33-7.12-2.72-10.5c-0.84-2.06-1.87-4-3.23-5.76c-3.19-4.11-7.41-6.23-12.62-6.42c-3.52-0.13-6.9,0.5-10.23,1.59
		c-3.16,1.03-6.18,2.36-9.12,3.9c-4.91,2.57-9.51,5.61-13.85,9.04c-2.48,1.96-5.02,3.82-7.65,5.56c-2.11,1.39-4.18,2.83-6.26,4.26
		c-23.71,16.19-47.28,32.59-70.83,49.02c-41.14,28.71-82.25,57.47-123.36,86.22c-19.26,13.47-38.5,26.98-57.75,40.47
		c-1.29,0.91-2.6,1.79-3.85,2.75c-0.49,0.37-0.92,0.89-1.21,1.43c-0.95,1.82-1.69,3.72-2.3,5.69c-1.19,3.84-1.51,7.72-0.91,11.69
		c0.12,0.78,0.32,1.54,0.58,2.29c1.1,3.24,3.07,5.85,5.76,7.92c1.63,1.25,3.41,2.26,5.29,3.1c2.75,1.23,5.63,2.07,8.57,2.62
		c3.56,0.67,7.15,1.23,10.81,1.2c1.58-0.01,3.16,0.08,4.73,0.09c5.05,0.05,10.1,0.09,15.15,0.12c5.68,0.04,11.36,0.06,17.05,0.1
		c0.95,0.01,1.89,0.06,2.84,0.1c0.6,0.03,1.25,0.63,1.27,1.18c0.04,0.94,0.09,1.89,0.1,2.83c0.01,6.15,0.01,12.31,0.02,18.46
		c0,1.26,0.01,2.52,0.03,3.79c0.01,0.31,0.04,0.65,0.18,0.9c0.14,0.26,0.4,0.55,0.66,0.62c1.55,0.39,3.14,0.21,4.71,0.21
		c40.57-0.03,81.13-0.06,121.7-0.1c0-0.02,0-0.04,0-0.06c27.62,0,55.25,0,82.87,0c12.79,0,25.57-0.02,38.36-0.03
		c1.42,0,2.84-0.01,4.26-0.02c0.31,0,0.63-0.06,0.94-0.09c0.32-0.03,0.9-0.61,0.95-0.93C484.52,475.06,484.34,473.16,484.34,471.27z
		"/>
	<path class="st1" d="M921.84,424.8c-0.05-0.62-0.2-1.25-0.37-1.85c-0.98-3.36-2.54-6.45-4.64-9.25c-0.48-0.64-1.08-1.15-1.77-1.55
		c-0.68-0.39-1.38-0.76-2.08-1.13c-14.17-7.62-28.34-15.23-42.51-22.85c-30.56-16.43-61.12-32.85-91.68-49.28
		c-1.11-0.6-2.2-1.23-3.32-1.81c-0.97-0.5-1.28-1.31-1.27-2.33c0.01-1.26-0.01-2.52-0.01-3.79c-0.03-37.55-0.06-75.11-0.09-112.66
		c0-1.26,0-2.52-0.01-3.79c0-0.47-0.05-0.94-0.07-1.42c-0.02-0.59-0.61-1.22-1.19-1.23c-1.42-0.04-2.84-0.11-4.25-0.11
		c-20.84,0.02-41.67,0.05-62.51,0.08c-1.1,0-2.21,0.01-3.31,0.03c-0.31,0.01-0.66,0.01-0.93,0.14c-0.27,0.13-0.61,0.37-0.68,0.62
		c-0.32,1.23-0.2,2.51-0.2,3.76c0.02,20.99,0.05,41.97,0.07,62.96c0,1.42-0.05,2.83-0.1,4.25c0,0.12-0.13,0.25-0.24,0.34
		c-0.28,0.23-0.6,0.26-0.89,0.06c-0.9-0.63-1.81-1.26-2.68-1.93c-20.42-15.89-40.84-31.79-61.26-47.69
		c-6.1-4.75-12.22-9.48-18.29-14.26c-2-1.57-4.13-2.9-6.44-3.94c-1.58-0.71-3.18-1.41-4.81-1.97c-4.51-1.54-9.11-2.49-13.93-2.2
		c-3.56,0.22-6.8,1.3-9.77,3.21c-1.87,1.21-3.44,2.75-4.8,4.53c-2.03,2.66-3.47,5.63-4.54,8.78c-1.57,4.66-2.43,9.47-2.79,14.35
		c-0.28,3.78-0.29,7.57-0.28,11.35c0.06,15.46,0.13,30.93,0.14,46.39c0.04,57.12,0.05,114.24,0.08,171.35
		c0,1.42,0.01,2.84,0.04,4.26c0.01,0.31,0.06,0.65,0.21,0.91c0.15,0.25,0.43,0.55,0.69,0.6c1.56,0.31,3.15,0.17,4.72,0.17
		c44.36-0.05,88.72-0.1,142.61-0.17c10.82-0.04,31.18-0.11,51.55-0.17c12.47-0.04,24.94-0.06,37.41-0.08
		c11.84-0.02,23.68-0.03,35.52-0.06c1.1,0,2.2-0.08,3.3-0.14c0.55-0.03,1.14-0.7,1.17-1.29c0.03-0.63,0.07-1.26,0.07-1.89
		c0.01-1.89,0-3.79,0-5.68c-0.01-5.52-0.02-11.04-0.03-16.57c0-0.79-0.05-1.59,0.22-2.34c0.09-0.26,0.39-0.58,0.63-0.63
		c0.77-0.14,1.55-0.21,2.33-0.21c7.89-0.03,15.79-0.06,23.68-0.05c3.63,0.01,7.26-0.04,10.87-0.56c0.78-0.11,1.57-0.15,2.36-0.2
		c4.58-0.29,9.08-1.14,13.53-2.18c3.53-0.83,6.99-1.95,10.24-3.61c1.98-1.01,3.83-2.19,5.51-3.65c0.96-0.84,1.8-1.77,2.53-2.8
		c1.49-2.11,2.42-4.43,2.44-7.04C922.01,427.32,921.94,426.06,921.84,424.8z"/>
</g>
</svg>
