<?xml version="1.0" encoding="utf-8"?>
<!-- Generator: Adobe Illustrator 25.0.0, SVG Export Plug-In . SVG Version: 6.00 Build 0)  -->
<svg version="1.1" id="Capa_1" xmlns="http://www.w3.org/2000/svg" xmlns:xlink="http://www.w3.org/1999/xlink" x="0px" y="0px"
	 viewBox="0 0 1080 440" style="enable-background:new 0 0 1080 440;" xml:space="preserve">
<style type="text/css">
	.st0{opacity:0.31;}
	.st1{opacity:0.4;fill:#55BBF7;}
	.st2{fill:#00C100;}
	.st3{fill:#09AFFD;}
	.st4{fill:#0DA9F2;}
	.st5{font-family:'abnes-Regular';}
	.st6{font-size:73.8478px;}
</style>
<g class="st0">
	<path class="st1" d="M370.83,180.35c0.11,0.36,0.21,0.71,0.32,1.07l0.79,2.97C371.75,183.7,371.75,183.7,370.83,180.35
		L370.83,180.35z"/>
	<path class="st1" d="M373.22,189.7c-0.04-0.19-0.08-0.38-0.12-0.57l0.2,0.88l0.17,0.81l-0.23-1.04
		C373.24,189.76,373.23,189.73,373.22,189.7L373.22,189.7z"/>
	<path class="st1" d="M372.98,238.33c-0.07,0.32-0.15,0.65-0.22,0.97c-0.95,3.2-2.39,7.41-3.66,10.49c0.04-0.17,0.06-0.35,0.12-0.52
		C370.32,245.98,372.04,241.67,372.98,238.33L372.98,238.33z"/>
	<path class="st1" d="M367.43,254.47c0.08-0.18,0.16-0.36,0.23-0.54c-0.44,1.71-1.06,3.98-1.71,5.62l-0.33,0.74
		c0.61-1.7,1.4-3.99,1.78-5.75C367.41,254.52,367.42,254.49,367.43,254.47L367.43,254.47z"/>
	<path class="st1" d="M271.11,326.88c-0.25,0.02-0.51,0.04-0.76,0.06c-0.37,0.02-2.16,0.03-6.84,0.05c0.16-0.05,0.16-0.05,4.41-0.08
		C270.52,326.9,270.99,326.89,271.11,326.88L271.11,326.88z"/>
	<path class="st1" d="M177.39,137.18c0.52-0.2,0.78-0.3,3.2-0.52c-0.08,0.09-0.17,0.19-0.25,0.28c-0.07,0.08-0.08,0.21-0.21,0.24
		c-0.47,0.11-1.11,0.12-1.59,0.17c-0.01,0-1.37,0.15-1.63,0.36C177.08,137.54,177.23,137.36,177.39,137.18L177.39,137.18z"/>
	<path class="st1" d="M295.02,104.5c-0.12-0.04-0.24-0.08-0.36-0.11c2.3,0.77,5.39,1.74,7.66,2.59c0.37,0.14,0.74,0.28,1.1,0.43
		c-2.5-0.89-5.83-2.11-8.36-2.9C295.05,104.51,295.04,104.51,295.02,104.5L295.02,104.5z"/>
	<path class="st1" d="M366.68,255.9c0.07-0.1,0.13-0.21,0.19-0.31c-3.51,9.47-3.64,9.83-8.15,17.62c-0.23,0.38-0.47,0.75-0.71,1.12
		c5.2-9.02,5.4-9.38,8.65-18.4C366.67,255.93,366.68,255.92,366.68,255.9L366.68,255.9z"/>
	<path class="st1" d="M219.75,107.65c1.52-0.52,1.55-0.53,3.64-1.01c-0.22,0.08-0.43,0.19-0.65,0.25c-0.45,0.13-1.06,0.25-1.52,0.36
		c-0.66,0.15-1.51,0.45-2.15,0.68C219.3,107.83,219.53,107.74,219.75,107.65L219.75,107.65z"/>
	<path class="st1" d="M200.37,117.65c7.7-4.59,10.16-5.97,20.81-10.12c-3.92,1.73-7.95,3.17-11.8,5.07c-3.04,1.5-6.92,3.8-9.81,5.57
		C199.84,117.99,200.11,117.82,200.37,117.65L200.37,117.65z"/>
	<path class="st1" d="M257.89,99.63c0.12,0,0.27-0.01,0.39-0.01c-9.94,0.63-17.79,1.14-31.17,5.72c-0.11,0.03-0.26,0.08-0.37,0.11
		c8.6-2.8,15.38-5.01,31.1-5.82C257.86,99.64,257.88,99.64,257.89,99.63L257.89,99.63z"/>
	<path class="st1" d="M239.23,105.44c-0.13,0.07-0.23,0.2-0.39,0.22c-4.88,0.39-9.79,0.51-14.66,0.99
		C224.77,106.41,225.44,106.15,239.23,105.44L239.23,105.44z"/>
	<path class="st1" d="M248.89,326.51l1.36,0.15c0.04,0,0.07,0.01,0.11,0.01C249.87,326.62,249.38,326.57,248.89,326.51
		L248.89,326.51z"/>
	<path class="st1" d="M176.92,289.1c0.24,0.27,0.48,0.54,0.72,0.8C177.4,289.64,177.16,289.37,176.92,289.1L176.92,289.1z"/>
	<path class="st1" d="M211.35,315.41c-1.77-1.02-1.8-1.04-2.47-2.1c-0.24-0.38,0.04-1.06,0.21-1.48c0.19,0.12,0.39,0.24,0.58,0.35
		c-0.16,0.42-0.42,1.1-0.17,1.47c0.53,0.81,0.82,1.25,2.5,2.08C211.79,315.62,211.57,315.52,211.35,315.41L211.35,315.41z"/>
	<path class="st1" d="M152.94,180.31c3.67-10.32,8.23-23.15,25.6-40.85c-0.84,2.31-3.84,4.26-5.51,6.06
		c-5.15,5.55-14.65,17.57-20.37,35.73l0.05-0.16C152.79,180.84,152.87,180.57,152.94,180.31L152.94,180.31z"/>
	<path class="st1" d="M151.57,185.3c0.05-0.21,0.11-0.42,0.16-0.64c0.85,1.5,4.18,2.77,18.67,4.79c-0.08,0.32-0.09,0.4-0.14,0.69
		c-12.87-1.77-18.29-3.15-18.71-4.76C151.55,185.36,151.56,185.33,151.57,185.3L151.57,185.3z"/>
	<path class="st1" d="M176.23,288.25c-0.1-0.12-0.2-0.24-0.3-0.36c8.83,8.85,14.79,13.52,30.63,22.12c0.08,0.08,0.19,0.18,0.28,0.25
		c-15.77-8.47-21.72-13.12-30.57-21.96C176.26,288.28,176.24,288.26,176.23,288.25L176.23,288.25z"/>
	<path class="st1" d="M174.52,286.2c-0.14-0.17-0.28-0.34-0.43-0.51c1.19,0.13,3.17,0.35,25.41,0.72c0.09,0.16,0.18,0.31,0.28,0.47
		c-11.87,0.02-24.39-0.5-25.23-0.63C174.54,286.22,174.53,286.21,174.52,286.2L174.52,286.2z"/>
	<path class="st1" d="M180.14,245.48c0.08,0.14,0.18,0.33,0.26,0.48c-10.3,12.81-16.85,23.07-7.29,38.53
		C160.22,268.79,174.69,251.86,180.14,245.48L180.14,245.48z"/>
	<path class="st1" d="M149.58,232.13c-1.18-14.45,4.2-24.95,20.58-40.13c0.02,0.15,0.04,0.35,0.06,0.49
		c-14.82,14.46-22.06,24.69-20.5,40.48C149.67,232.69,149.63,232.41,149.58,232.13L149.58,232.13z"/>
	<path class="st1" d="M151.49,241.26c0.66,0.34,1.9,0.96,27.95,1.94c0.05,0.32,0.07,0.39,0.12,0.64c-7.08-0.2-27.39-0.97-27.89-1.87
		C151.61,241.74,151.55,241.5,151.49,241.26L151.49,241.26z"/>
	<path class="st1" d="M343.75,270.92c0.16-0.23,0.28-0.43,0.33-0.53c6.87,5.81,9.51,9.92,4.85,16.3c-0.16,0.19-0.32,0.38-0.49,0.57
		c3.63-5.19,3.9-9.13-4.75-16.27C343.71,270.97,343.73,270.95,343.75,270.92L343.75,270.92z"/>
	<path class="st1" d="M255.07,327.05c-0.24-0.01-0.47-0.03-0.71-0.04c0.45,0.02,0.98,0.03,2.75,0.06c0.19,0.01,0.37,0.03,0.56,0.04
		c-1.77-0.03-2.23-0.04-2.55-0.05C255.11,327.05,255.08,327.05,255.07,327.05L255.07,327.05z"/>
	<path class="st1" d="M211.45,313.15c0.13,0.06,0.3,0.13,0.42,0.2c4.97,2.65,9.49,6.15,14.9,7.99c10.15,3.46,13.98,4.16,24.72,5.45
		C228.22,324.64,216.47,316.59,211.45,313.15L211.45,313.15z"/>
	<path class="st1" d="M280.21,323.76c-1.09,0.45-14.86,2.86-16.42,3.13c0.09-0.04,0.14-0.06,3.49-0.66
		C273.55,325.09,277.25,324.35,280.21,323.76L280.21,323.76z"/>
	<path class="st1" d="M179.44,139.68c0.1-0.07,0.24-0.17,0.34-0.25c-4.65,8.73-11.69,21.93-7.52,46.85
		c-0.13,0.11-0.3,0.26-0.43,0.37c-1.47-11.08-3.69-27.83,7.57-46.94C179.41,139.7,179.43,139.69,179.44,139.68L179.44,139.68z"/>
	<path class="st1" d="M219.97,108.17l0.11-0.01c-10.19,4.91-21.74,10.47-35.91,25.57C191.15,126.55,200.71,116.72,219.97,108.17
		C219.97,108.17,219.97,108.17,219.97,108.17L219.97,108.17z"/>
	<path class="st1" d="M221.58,107.65c0.16-0.06,0.32-0.12,0.49-0.18c-6.14,3.38-17.57,9.66-14.99,23.99
		c-0.22,0.16-0.28,0.21-0.5,0.39c-0.68-5.84-1.82-15.61,14.93-24.16C221.54,107.66,221.56,107.65,221.58,107.65L221.58,107.65z"/>
	<path class="st1" d="M205.07,133.51c-0.14,0.21-0.18,0.26-0.32,0.51c-12.42,1.26-16.49,1.82-22.42,2.84
		C182.67,136.46,183.31,135.72,205.07,133.51L205.07,133.51z"/>
	<path class="st1" d="M201.37,288.72c0.22,0.19,0.28,0.23,0.51,0.4c-0.61,7.49-0.49,13,6.52,21.13
		C208.31,310.21,199.65,304.36,201.37,288.72L201.37,288.72z"/>
	<path class="st1" d="M213.05,313.43c-0.06-0.06-0.13-0.13-0.19-0.18c12.12,5.79,24.44,11.18,41.87,13.57
		c0.07,0.01,0.17,0.02,0.25,0.03c-10.31-1.5-22.05-3.77-41.9-13.4C213.07,313.45,213.06,313.44,213.05,313.43L213.05,313.43z"/>
	<path class="st1" d="M212.25,312.76c-0.13-0.1-0.26-0.19-0.39-0.28c8.84,3.46,18.24,6.97,36.02,11.69
		c0.05,0.03,0.12,0.07,0.17,0.09c-18.3-4.66-30.09-9.25-35.75-11.46C212.29,312.78,212.27,312.77,212.25,312.76L212.25,312.76z"/>
	<path class="st1" d="M172.58,194.44c0.12-0.04,0.28-0.1,0.39-0.15c0.55,11.08,1.24,24.87,8.1,45.13c-0.13,0.04-0.31,0.1-0.44,0.16
		c-3.44-11.06-7.73-24.83-8.11-45.13C172.54,194.45,172.56,194.45,172.58,194.44L172.58,194.44z"/>
	<path class="st1" d="M204.53,136.42c0.07,0.04,0.17,0.09,0.24,0.13c-12.63,15.43-21.2,27.89-30.27,49.57
		c-0.07-0.04-0.16-0.1-0.23-0.14C181.02,169.35,188.14,155.91,204.53,136.42L204.53,136.42z"/>
	<path class="st1" d="M206.68,136.28c0.14-0.07,0.32-0.16,0.45-0.24c-1.02,15.78,1.8,31.16,19.19,63.05
		c-0.19,0.11-0.43,0.26-0.61,0.38c-13.54-25.31-21-43.76-19.09-63.16C206.64,136.3,206.66,136.29,206.68,136.28L206.68,136.28z"/>
	<path class="st1" d="M175.14,191.18c0.04-0.13,0.09-0.31,0.15-0.64c7.57,2.2,19,5.53,48.84,11.4c-0.04,0.17-0.08,0.39-0.1,0.55
		c-19.28-3.38-38.46-8.07-48.91-11.23C175.12,191.24,175.13,191.2,175.14,191.18L175.14,191.18z"/>
	<path class="st1" d="M237.49,106.92c-7.8,5.08-15.86,10.32-27.58,23.73c-0.09-0.03-0.21-0.07-0.3-0.09
		C216.19,123.41,224.36,114.51,237.49,106.92L237.49,106.92z"/>
	<path class="st1" d="M250.7,123.32c-0.01,0.13-0.01,0.3,0,0.43c-13.34,2.89-27.13,5.87-40.83,9.34c0.06-0.11,0.14-0.26,0.19-0.38
		C216.04,131.11,222.23,129.46,250.7,123.32L250.7,123.32z"/>
	<path class="st1" d="M224.4,205.37c0.07,0.15,0.18,0.34,0.27,0.48c-18.37,14.39-27.59,21.61-40.14,35.66
		c-0.08-0.14-0.19-0.32-0.28-0.46C189.82,234.51,197.45,225.55,224.4,205.37L224.4,205.37z"/>
	<path class="st1" d="M204.56,289.83c0.08-0.04,0.17-0.09,0.24-0.15c6.97,7.65,23.3,25.56,42.66,34.02
		c-5.52-2.57-22.32-10.38-42.94-33.86C204.53,289.84,204.55,289.84,204.56,289.83L204.56,289.83z"/>
	<path class="st1" d="M183.41,247.86c0.12-0.01,0.28-0.04,0.4-0.07c3.97,11.56,6.83,19.91,16.28,35.59
		c-0.11,0.01-0.26,0.04-0.37,0.06c-6.61-11.16-10.62-18.32-16.36-35.57C183.37,247.87,183.39,247.87,183.41,247.86L183.41,247.86z"
		/>
	<path class="st1" d="M185.37,244.28c-0.02-0.15-0.04-0.3-0.09-0.62c11.71,1.32,21.96,2.43,47.3,4.62c0,0.15,0,0.36,0,0.51
		c-19.54-1.27-44.43-4.11-47.2-4.43C185.37,244.34,185.37,244.31,185.37,244.28L185.37,244.28z"/>
	<path class="st1" d="M205.06,288.03c-0.03-0.1-0.06-0.22-0.15-0.45c8.99,3.32,15.46,5.67,34.44,11.9c0,0.13,0.01,0.31,0.02,0.45
		c-18.94-6.23-24.99-8.39-34.29-11.84C205.07,288.07,205.06,288.05,205.06,288.03L205.06,288.03z"/>
	<path class="st1" d="M236.43,253.07c0.14,0.01,0.32,0.03,0.46,0.04c1.33,21.87,1.88,30.92,4.95,44.76
		c-0.13-0.01-0.31-0.02-0.45-0.03C239.69,289.99,237.13,278.15,236.43,253.07L236.43,253.07z"/>
	<path class="st1" d="M233.34,251.19c0.18,0.26,0.23,0.32,0.45,0.56c-12.51,10.4-24.26,20.77-30.6,33.19
		c-0.22-0.22-0.26-0.26-0.49-0.45C206.41,277.79,211.04,269.45,233.34,251.19L233.34,251.19z"/>
	<path class="st1" d="M239.7,106.37c0.13-0.06,0.26-0.12,0.39-0.19c-0.5,4.05,1.09,7.36,11.51,15.16c-0.14,0.15-0.18,0.19-0.3,0.36
		c-9.66-7.32-12.28-10.75-11.65-15.3C239.67,106.39,239.69,106.38,239.7,106.37L239.7,106.37z"/>
	<path class="st1" d="M261.47,99.57c0.14,0,0.27,0,0.41,0c-0.15,0-0.3,0-0.46,0C261.44,99.57,261.46,99.57,261.47,99.57
		L261.47,99.57z"/>
	<path class="st1" d="M260.01,99.58c0.22,0,0.43-0.01,0.65-0.01c-14.03,0.33-20.9,2.14-20.41,5.37c-0.15,0.07-0.31,0.14-0.46,0.21
		c-0.28-3.36,6.49-5.24,20.13-5.58C259.95,99.58,259.98,99.58,260.01,99.58L260.01,99.58z"/>
	<path class="st1" d="M261.95,99.57c0.03,0.03,0.07,0.07,0.1,0.1c-0.5,0.2-0.89,0.35-3.14,0.96c-5.62,1.51-11.26,2.92-16.88,4.44
		c0.25-0.17,0.25-0.17,4.05-1.2c0.4-0.11,2.12-0.56,9.26-2.38c5.7-1.45,6.18-1.62,6.72-1.87C262.02,99.6,261.98,99.58,261.95,99.57
		L261.95,99.57z"/>
	<path class="st1" d="M262.99,326.94c-0.1,0.05-0.1,0.05-1.34,0.08c-2.68,0.05-3.44,0.08-3.68,0.09c-0.17-0.01-0.35-0.03-0.52-0.04
		C258.83,327.01,260.31,326.99,262.99,326.94L262.99,326.94z"/>
	<path class="st1" d="M250.13,325.1c0.68,0.22,1.24,0.7,1.93,0.91c1.26,0.38,2.99,0.74,4.3,0.95
		C252.76,326.59,251.24,325.73,250.13,325.1L250.13,325.1z"/>
	<path class="st1" d="M322.62,117.16c0.21,0.13,0.41,0.26,0.62,0.39c0.54,0.42,1.3,1.01,1.64,1.62c0.21,0.38,0.14,1.02,0.05,1.44
		c-0.19-0.14-0.38-0.28-0.58-0.41c0.07-0.5,0.05-1.22-0.2-1.65C323.85,118.01,323.13,117.52,322.62,117.16L322.62,117.16z"/>
	<path class="st1" d="M241.62,302.97c0.21,0.1,0.26,0.12,0.47,0.19c-0.6,6.1-1.5,15.31,6.35,20.67
		C248.34,323.8,239.15,320.07,241.62,302.97L241.62,302.97z"/>
	<path class="st1" d="M251.11,324.93c-0.09-0.04-0.18-0.09-0.28-0.13c7.88,1.21,10.54,1.62,12.29,2.06c-0.19,0.1-0.49-0.05-0.7-0.09
		c-2.07-0.42-4.02-0.72-11.28-1.82C251.14,324.95,251.12,324.94,251.11,324.93L251.11,324.93z"/>
	<path class="st1" d="M262.31,99.61c1.1,0.79,1.76,1.27,0.09,6.08c-1.29,3.72-4.67,9.93-7.39,14.92c-0.09-0.04-0.2-0.08-0.29-0.11
		C262.02,106.67,264.75,101.49,262.31,99.61L262.31,99.61z"/>
	<path class="st1" d="M273.25,320.36c0.03,0.02,0.07,0.05,0.11,0.07c-3.73,2.9-5.98,4.66-9.17,6.18
		C267.04,324.99,268.48,324.17,273.25,320.36L273.25,320.36z"/>
	<path class="st1" d="M244.42,303.01c0.07-0.05,0.14-0.09,0.26-0.21c15.44,15.62,20.08,20.94,19.04,23.82
		c-0.04,0.01-0.09,0.03-0.13,0.04c0.64-3-2.59-6.97-19.21-23.62C244.39,303.02,244.41,303.01,244.42,303.01L244.42,303.01z"/>
	<path class="st1" d="M270.55,285.91c0.07,0.2,0.07,0.2,0.18,0.43c-15.97,7.62-18.43,8.79-26.17,13.23
		c-0.12-0.17-0.12-0.17-0.27-0.37C253.08,294.09,256.99,292.22,270.55,285.91L270.55,285.91z"/>
	<path class="st1" d="M245.06,302.16c0.03-0.08,0.05-0.17,0.08-0.36c18.46,8.91,24.54,12.12,29.23,16.22
		c-0.08,0.07-0.18,0.15-0.26,0.22c-5.88-4.6-10.23-7-29.07-16.03C245.05,302.19,245.06,302.17,245.06,302.16L245.06,302.16z"/>
	<path class="st1" d="M252.25,125.5c0.12,0.02,0.28,0.05,0.39,0.08c-10.67,29.52-16.02,44.34-23.14,73.21
		c-0.13-0.03-0.3-0.07-0.42-0.1C232.33,183.84,237.38,164.7,252.25,125.5L252.25,125.5z"/>
	<path class="st1" d="M366.71,253.38c-0.02,0.05-2.51,5.5-21.8,15.24c0.09-0.28,0.11-0.35,0.17-0.61
		C354.27,263.25,360.74,259.66,366.71,253.38L366.71,253.38z"/>
	<path class="st1" d="M275.82,152.25c0.11,0.1,0.26,0.22,0.38,0.31c-14.11,16.58-30.13,31.37-44.8,47.43
		c-0.11-0.12-0.26-0.27-0.38-0.38C245.41,183.31,261.41,168.53,275.82,152.25L275.82,152.25z"/>
	<path class="st1" d="M239.67,252.16c0.19-0.17,0.3-0.3,0.4-0.42c27.5,25.8,27.5,25.8,31.83,30.24c-0.11,0.08-0.25,0.2-0.36,0.29
		c-2.12-2.04-2.12-2.04-31.93-30.05C239.63,252.2,239.65,252.18,239.67,252.16L239.67,252.16z"/>
	<path class="st1" d="M240.85,249.58c0.01-0.18,0-0.42-0.01-0.61c57.08,4.65,57.08,4.65,63.47,5.22c-0.05,0.2-0.11,0.47-0.14,0.67
		c-3.9-0.35-3.9-0.35-63.32-5.21C240.84,249.64,240.84,249.61,240.85,249.58L240.85,249.58z"/>
	<path class="st1" d="M228.49,207.62c0.15-0.02,0.31-0.03,0.61-0.1c1.72,11.43,3.08,20.46,6.95,37.28
		c-0.15,0.02-0.36,0.04-0.51,0.07c-2-8.21-4.49-18.43-7.13-37.23C228.43,207.63,228.46,207.62,228.49,207.62L228.49,207.62z"/>
	<path class="st1" d="M232.36,203.63c0.02-0.2,0.03-0.47,0.04-0.67c23.68,1.26,47.36,2.38,71.03,3.7c-0.01,0.23-0.02,0.53-0.01,0.75
		c-23.69-1.32-47.38-2.45-71.06-3.71C232.36,203.69,232.36,203.66,232.36,203.63L232.36,203.63z"/>
	<path class="st1" d="M303.79,209.26c0.09,0.21,0.23,0.47,0.34,0.67c-20.75,13.28-42.6,24.67-63.76,37.24
		c-0.1-0.19-0.25-0.43-0.37-0.61C261.24,234.08,283.09,222.66,303.79,209.26L303.79,209.26z"/>
	<path class="st1" d="M254.88,125.09c0.16-0.1,0.26-0.18,0.35-0.25c5.3,6.37,6.9,8.3,20.62,22.02c-0.2,0.15-0.25,0.19-0.43,0.37
		c-12.31-12.39-15.58-15.9-20.59-22.1C254.84,125.12,254.87,125.1,254.88,125.09L254.88,125.09z"/>
	<path class="st1" d="M267.42,102.31c0.06,0.03,0.14,0.06,0.2,0.09c0.09,3.8-1.07,6.87-12.02,18.6c-0.13-0.12-0.17-0.15-0.32-0.25
		C263.16,112.26,267.91,106.78,267.42,102.31L267.42,102.31z"/>
	<path class="st1" d="M289.7,116.46c0.07,0.09,0.17,0.2,0.25,0.29c-7.81,1.88-16.27,3.26-33.71,5.98c0-0.13-0.01-0.3-0.01-0.43
		C269.23,120.27,279.51,118.67,289.7,116.46L289.7,116.46z"/>
	<path class="st1" d="M285.62,103.95c12.44,5.41,25.75,12.6,39.6,35.36c-0.07-0.01-0.17-0.02-0.24-0.03
		C315.72,125.09,306.38,112.63,285.62,103.95L285.62,103.95z"/>
	<path class="st1" d="M325.25,122.09c0.07,0.05,6.84,5.71,2.59,18.84c-0.21-0.21-0.27-0.27-0.49-0.46
		C328.89,135.07,330.34,129.98,325.25,122.09L325.25,122.09z"/>
	<path class="st1" d="M283.93,103.51c2.27,0.7,5.25,3.6,5.46,3.9c2.26,3.22,2.29,3.71,2.54,7.5c-0.16-0.11-0.28-0.18-0.45-0.27
		C291.04,108.97,290.13,107.23,283.93,103.51L283.93,103.51z"/>
	<path class="st1" d="M268.71,102.41l0.01-0.09c6,3.19,10.77,5.94,20.22,12.07c-0.03,0.06-0.06,0.14-0.08,0.21
		c-8.72-5.68-13.08-8.38-20.15-12.18C268.71,102.41,268.71,102.41,268.71,102.41L268.71,102.41z"/>
	<path class="st1" d="M307.55,211.85c0.19,0,0.32-0.01,0.66-0.06c0.89,13.78,1.35,23.27,0.31,38.98c-0.14,0.01-0.33,0.02-0.47,0.03
		C308.52,236.95,308.8,228.58,307.55,211.85L307.55,211.85L307.55,211.85z"/>
	<path class="st1" d="M262.05,99.57c-0.04,0-0.08,0-0.12,0c1.19,0.07,6.05,0.48,18.69,2.86c0.16,0.05,0.32,0.11,0.48,0.16
		c-12.93-2.46-17.84-2.93-19.04-3.01C262.06,99.57,262.06,99.57,262.05,99.57L262.05,99.57z"/>
	<path class="st1" d="M262.43,99.62c-0.01,0-0.02-0.01-0.03-0.01c1.1,0.32,2.54,0.85,3.59,1.31c-0.01,0.01-0.02,0.03-0.02,0.04
		C264.92,100.5,263.52,99.92,262.43,99.62C262.43,99.62,262.43,99.62,262.43,99.62L262.43,99.62z"/>
	<path class="st1" d="M268.25,101.75c-0.06-0.04-0.12-0.09-0.18-0.13c7.32,0.54,9.16,0.69,13.27,1.04c0.17,0.06,0.34,0.11,0.52,0.17
		c-3.86-0.33-6.04-0.51-13.58-1.06C268.27,101.77,268.26,101.76,268.25,101.75L268.25,101.75z"/>
	<path class="st1" d="M294.26,118.16c0.02-0.06,0.05-0.15,0.06-0.22c12.69,8.54,18.21,12.63,29.54,21.88
		c-0.04,0.1-0.08,0.24-0.1,0.34c-11.46-9.38-16.98-13.49-29.51-21.97C294.25,118.18,294.26,118.17,294.26,118.16L294.26,118.16z"/>
	<path class="st1" d="M291.47,117.99c0.1,0.06,0.23,0.13,0.33,0.18c-0.13,5.21-0.3,12.34-11.27,28.96c-0.22-0.17-0.28-0.2-0.52-0.34
		C284.94,139.01,291.68,128.36,291.47,117.99L291.47,117.99z"/>
	<path class="st1" d="M338.53,201.31c0.04,0.34,0.05,0.43,0.11,0.75c-10.43,2.07-13.66,2.67-27.2,4.95
		c-0.03-0.34-0.04-0.43-0.1-0.75C324.92,203.96,328.22,203.36,338.53,201.31L338.53,201.31z"/>
	<path class="st1" d="M280.04,153.18c0.15-0.05,0.34-0.13,0.48-0.2c8.61,15.25,16.73,29.66,25.53,49.98
		c-0.14,0.05-0.33,0.13-0.47,0.2c-8.52-18.36-11.7-25.23-25.62-49.96C279.99,153.19,280.02,153.18,280.04,153.18L280.04,153.18z"/>
	<path class="st1" d="M324.56,142.72c0.08,0.13,0.18,0.3,0.26,0.42c-3.99,0.87-12.3,2.67-42.81,6.48c-0.03-0.14-0.07-0.32-0.1-0.45
		C321,143.39,321,143.39,324.56,142.72L324.56,142.72z"/>
	<path class="st1" d="M326.86,145.29c0.08,0.05,0.18,0.11,0.25,0.16c0.79,14.49-1.81,29.28-17.24,58.2c-0.17-0.13-0.4-0.29-0.57-0.4
		C318.66,185.37,327.73,166.16,326.86,145.29L326.86,145.29z"/>
	<path class="st1" d="M274.48,287.81c0.12-0.03,0.25-0.06,0.49-0.14c1.6,8.18,4.02,20.54,0.9,29.64c-0.1,0.02-0.23,0.06-0.33,0.09
		c1.22-4.95,2.88-11.72-1.13-29.57C274.43,287.82,274.46,287.82,274.48,287.81L274.48,287.81z"/>
	<path class="st1" d="M304.56,257.53c0.14,0.22,0.18,0.28,0.36,0.47c-10.37,9.33-11.7,10.47-27.95,24.39
		c-0.08-0.09-0.19-0.22-0.27-0.3C285.95,273.86,295.4,265.85,304.56,257.53L304.56,257.53z"/>
	<path class="st1" d="M277.19,285.61c0.04-0.11,0.1-0.23,0.16-0.48c10.99,2.7,31.45,7.72,42,13.32c-0.1,0.1-0.24,0.24-0.35,0.35
		c-8.2-3.55-15.95-6.91-41.84-13.13C277.18,285.65,277.19,285.63,277.19,285.61L277.19,285.61z"/>
	<path class="st1" d="M276.09,319.52c0.09-0.07,0.17-0.15,0.25-0.23c3.7,1.66,4.87,2.36,5.52,3.8c-0.16,0.06-0.32,0.12-0.48,0.19
		c-0.59-1.31-1.36-1.96-5.33-3.73C276.07,319.54,276.08,319.53,276.09,319.52L276.09,319.52z"/>
	<path class="st1" d="M317.6,300.54c-0.04,0.07-1.54,2.01-40.49,17.72c0.02-0.06,0.04-0.14,0.06-0.2
		C307.59,305.33,307.59,305.33,317.6,300.54L317.6,300.54z"/>
	<path class="st1" d="M340.13,273.2c0.07,0.02,0.16,0.05,0.24,0.07c-5.51,8.91-8.28,13.39-17.21,23.27
		c-0.07-0.02-0.17-0.05-0.25-0.06C329.97,288.36,333.19,284.66,340.13,273.2L340.13,273.2z"/>
	<path class="st1" d="M309.64,258.04c0.11-0.09,0.24-0.19,0.46-0.4c9.08,15.26,13.53,26.06,11.04,39.43
		c-0.11,0.07-0.26,0.16-0.37,0.24c1.25-9.85,1.21-18.99-11.2-39.21C309.59,258.07,309.62,258.05,309.64,258.04L309.64,258.04z"/>
	<path class="st1" d="M294.7,104.45c14.59,4.26,24.36,11.92,27.56,14.43c-0.05-0.03-0.11-0.06-0.16-0.09
		c-0.05-0.02-0.11-0.05-0.15-0.08c-1.73-0.91-3.67-2.72-5.24-3.89C313.36,112.33,306.81,108.51,294.7,104.45L294.7,104.45z"/>
	<path class="st1" d="M285.52,103.69c-0.08-0.04-0.18-0.09-0.26-0.12c14.56,4.55,22.63,7.99,36.02,15.34
		c0.08,0.08,0.19,0.19,0.28,0.28c-10.75-5.9-19.07-10.17-36-15.48C285.54,103.7,285.53,103.69,285.52,103.69L285.52,103.69z"/>
	<path class="st1" d="M329.77,145.46c0.04-0.08,0.08-0.21,0.11-0.3c9.21,8.99,15.32,15.14,24.43,27.71
		c-0.04,0.08-0.08,0.2-0.12,0.29c-7.32-9.63-11.74-15.44-24.44-27.66C329.75,145.49,329.76,145.47,329.77,145.46L329.77,145.46z"/>
	<path class="st1" d="M328.38,145.95c0.09,0.01,0.2,0.02,0.29,0.03c4.18,8.91,11.16,23.83,13,50.64c-0.09-0.01-0.2-0.03-0.29-0.04
		C339.54,180.63,337.8,165.55,328.38,145.95L328.38,145.95z"/>
	<path class="st1" d="M339.81,204.54c0.11,0.12,0.27,0.27,0.4,0.38c-4.99,10.83-10.66,23.12-29.39,46.77
		c-0.13-0.12-0.3-0.27-0.44-0.38C325.13,232.32,332.56,220.51,339.81,204.54L339.81,204.54z"/>
	<path class="st1" d="M355.52,241.13c0.07,0.04,0.17,0.09,0.24,0.12c-3.68,10.04-5.36,14.62-11.09,24.71
		c-0.09-0.05-0.21-0.1-0.3-0.13C349.27,256.6,351.96,251.52,355.52,241.13L355.52,241.13z"/>
	<path class="st1" d="M311.09,256.24c0.11-0.24,0.17-0.42,0.23-0.57c13.47,4.78,20.55,7.58,29.52,12.57
		c-0.16,0.25-0.21,0.34-0.36,0.61c-5.95-3.26-11.09-6.07-29.43-12.53C311.06,256.29,311.08,256.26,311.09,256.24L311.09,256.24z"/>
	<path class="st1" d="M354.65,237.84c-0.01,0.16-0.03,0.38-0.04,0.54c-8.01,3.87-16.78,7.72-43.01,15.72c0-0.15,0-0.36-0.01-0.51
		C338.83,244.62,342.32,243.46,354.65,237.84L354.65,237.84z"/>
	<path class="st1" d="M355.39,178.64c0.15,0.26,0.2,0.33,0.36,0.57c-3.27,7.17-4.5,9.85-11.75,19.43c-0.14-0.28-0.18-0.35-0.35-0.6
		C349.37,190.35,351.51,187.47,355.39,178.64L355.39,178.64z"/>
	<path class="st1" d="M343.63,204.79c0.16-0.17,0.21-0.26,0.32-0.41c4.5,8.27,9.14,16.81,12.43,28.95
		c-0.17,0.19-0.21,0.23-0.37,0.45c-2.5-8.02-5.09-16.31-12.43-28.94C343.59,204.82,343.61,204.8,343.63,204.79L343.63,204.79z"/>
	<path class="st1" d="M317.25,301.91c0.04,0.03,0.09,0.08,0.13,0.11c-7.78,6.32-17.47,14.18-32.7,20.38
		C293.18,318.52,302.83,314.13,317.25,301.91L317.25,301.91z"/>
	<path class="st1" d="M357.38,151.5c8,13.43,9.59,16.99,14.18,31.76C366.81,168.19,365.22,164.63,357.38,151.5L357.38,151.5z"/>
	<path class="st1" d="M344.82,291.32c-0.17,0.18-0.33,0.35-0.5,0.53c-1.82,1.47-4.58,3.68-22.11,7.31c0.13-0.15,0.17-0.39,0.39-0.47
		c1.17-0.41,2.83-0.61,4.04-0.87C331.14,296.85,341.91,294.29,344.82,291.32L344.82,291.32z"/>
	<path class="st1" d="M332.88,302.34c-0.32,0.26-0.64,0.51-0.96,0.76c-7.54,5.46-10.98,7.95-21.88,13.14
		c4.42-2.4,8.98-4.53,13.28-7.14C326.32,307.27,330.09,304.47,332.88,302.34L332.88,302.34z"/>
	<path class="st1" d="M320.15,301.02c0.16-0.11,0.31-0.23,0.46-0.35c-0.55,4.27-1.24,9.59-11.71,15.85
		c-0.19,0.09-0.39,0.17-0.58,0.26c4.77-3.05,11.3-7.23,11.77-15.72C320.11,301.05,320.13,301.03,320.15,301.02L320.15,301.02z"/>
	<path class="st1" d="M327.53,122.83c-0.08-0.09-0.16-0.17-0.24-0.26c7.63,5.21,17.12,11.69,25.67,22.66
		c0.06,0.08,0.14,0.2,0.2,0.28c-5.32-6.27-11.35-13.38-25.61-22.66C327.55,122.85,327.54,122.84,327.53,122.83L327.53,122.83z"/>
	<path class="st1" d="M327.22,123.26c0.19,0.07,20.68,14.96,28.66,49.24c-0.07-0.03-0.16-0.07-0.23-0.11
		C352.03,159.29,347.05,141.34,327.22,123.26L327.22,123.26z"/>
	<path class="st1" d="M356.02,149.56c3.47,4.98,6.57,13.36,1.64,25.03c-0.15-0.28-0.19-0.34-0.34-0.59
		C359.55,167.88,362.32,160.27,356.02,149.56L356.02,149.56z"/>
	<path class="st1" d="M284.42,101.81c0.3,0.06,0.6,0.12,0.9,0.18l3.93,0.91C288.73,102.77,288.73,102.77,284.42,101.81
		L284.42,101.81z"/>
	<path class="st1" d="M268.43,99.75c0.26,0.01,0.52,0.03,0.78,0.05c7.88,0.59,11.77,1.42,13.42,2.86c-0.19-0.06-0.39-0.09-0.57-0.17
		c-0.22-0.08-0.44-0.33-0.63-0.47c-0.17-0.13-1.28-0.7-3.59-1.18C274.37,100.14,270.65,99.9,268.43,99.75L268.43,99.75z"/>
	<path class="st1" d="M283.53,102.94c-0.17-0.05-0.34-0.11-0.51-0.16c4.26,0.23,6.08,0.36,7.78,0.57c0.24,0.06,0.47,0.13,0.71,0.19
		c-1.59-0.2-3.11-0.33-7.94-0.58C283.57,102.95,283.55,102.95,283.53,102.94L283.53,102.94z"/>
	<path class="st1" d="M373.43,191.7c1.78,12.07,4.46,30.32-4.15,56.58C373.13,234.82,377.93,218.07,373.43,191.7L373.43,191.7z"/>
	<path class="st1" d="M358.72,238.71c0.1-0.27,0.17-0.49,0.2-0.6c4.17,3.87,7.46,6.93,8.8,12.52c-0.09,0.22-0.18,0.44-0.26,0.66
		c-1.17-3.79-2.01-6.53-8.77-12.49C358.7,238.77,358.72,238.73,358.72,238.71L358.72,238.71z"/>
	<path class="st1" d="M281.75,323.75c0.15-0.05,0.3-0.11,0.46-0.16c0.72,0.53,2.05,1.51-3.96,2.47c-0.44,0.07-1.02,0.15-1.46,0.21
		c-0.25,0.03-0.5,0.07-0.76,0.1c4.67-0.63,7.43-1.31,5.71-2.56c-0.02-0.01-0.04-0.03-0.06-0.04
		C281.71,323.77,281.74,323.76,281.75,323.75L281.75,323.75z"/>
	<path class="st1" d="M304.62,318.69c0.17-0.07,0.34-0.14,0.52-0.21c-5.68,2.43-5.9,2.53-10.47,3.95l-0.85,0.25
		c5.9-1.9,6.66-2.15,10.74-3.97C304.58,318.71,304.6,318.7,304.62,318.69L304.62,318.69z"/>
	<path class="st1" d="M305.82,317.91c-0.04,0.02-4.81,2.04-22.92,5.42c0.16-0.06,0.3-0.15,0.46-0.19
		C290.85,321.37,298.46,320.18,305.82,317.91L305.82,317.91z"/>
	<path class="st1" d="M357.31,180.52c0.08,0.02,0.18,0.04,0.26,0.05c3.36,17.47,4.3,29.73,0.57,52.12
		c-0.08-0.02-0.19-0.04-0.27-0.06C360.76,213.04,361.32,201.47,357.31,180.52L357.31,180.52z"/>
	<path class="st1" d="M358.7,177.59c-0.05-0.26-0.11-0.5-0.13-0.6c7.69,3.7,10.38,5.35,13.39,9.14c0.05,0.23,0.1,0.47,0.16,0.7
		c-2.81-3.37-4.7-5.04-13.4-9.17C358.71,177.65,358.7,177.61,358.7,177.59L358.7,177.59z"/>
	<path class="st1" d="M372.91,190.08c0.05,0.18,4.68,18.08-13.64,44.29c-0.03-0.15-0.08-0.34-0.12-0.49
		C365.34,224.34,374.7,209.93,372.91,190.08L372.91,190.08z"/>
	<path class="st1" d="M152.71,181.1c-0.52,1.75-1.49,5.49-1.9,7.27C151.37,185.92,152,183.49,152.71,181.1L152.71,181.1z"/>
	<path class="st1" d="M250.36,326.67c-0.07-0.01-0.14-0.01-0.21-0.02c2.17,0.22,5.16,0.48,9.08,0.57c-0.06,0-0.14,0-0.2,0
		C256.11,327.14,253.22,326.96,250.36,326.67L250.36,326.67z"/>
	<path class="st1" d="M171.57,282.64c-0.02-0.03-0.04-0.05-0.06-0.08c0.22,0.23,5.44,6.56,5.47,6.6c-0.02-0.02-0.04-0.04-0.06-0.06
		C175.06,287.02,173.27,284.86,171.57,282.64L171.57,282.64z"/>
	<path class="st1" d="M261.88,99.57c-1.95,0-3.62,0.05-4.68,0.1C258.75,99.6,260.31,99.57,261.88,99.57L261.88,99.57z"/>
	<path class="st1" d="M224,106.4c-1.98,0.73-3.71,1.48-4.04,1.74c0.01,0.01,0.02,0.02,0.02,0.03c0.55-0.07,7.65-2.85,7.9-3.01
		c-0.01,0-0.03-0.01-0.05-0.01C227.41,105.23,225.76,105.75,224,106.4L224,106.4z"/>
	<path class="st1" d="M180.46,136.81c1.55-1.75,3.1-3.05,3.68-3.08c0.98,0.19-3.08,4.85-4.75,5.98c-0.69,0.47-1.04,0.48-0.95,0.03
		C178.56,139.2,179.31,138.11,180.46,136.81L180.46,136.81z"/>
	<path class="st1" d="M208.48,311.45c-1.86-1.21-2.53-1.95-2.24-2.06c0.02-0.01,0.06-0.01,0.08-0.01c1.2,0.09,7.29,3.96,6.86,4.35
		C212.98,313.92,210.92,313.04,208.48,311.45L208.48,311.45z"/>
	<path class="st1" d="M170.27,190.06c0.37-2.05,1.52-4.15,3.26-4.25c2.72,0.04,2.46,5.72,0.22,7.92c-1.63,1.6-3.67,0.74-3.61-2.36
		C170.15,190.96,170.19,190.52,170.27,190.06L170.27,190.06z"/>
	<path class="st1" d="M179.51,243.61c-0.58-2.87,0.65-4.21,2.03-4.24c3.69,0.25,4.83,6.47,2.98,8.04
		C183.08,248.63,180.27,247.41,179.51,243.61L179.51,243.61z"/>
	<path class="st1" d="M257.4,327.09c-1.76-0.13-2.97-0.3-3-0.33c2.14,0.1,4.26,0.44,6.4,0.48
		C260.43,327.23,259.06,327.21,257.4,327.09L257.4,327.09z"/>
	<path class="st1" d="M199.67,286.68c-1.14-1.91-0.94-3.28,0.5-3.31c3.06,0.18,6.06,5.04,4.63,6.31
		C203.94,290.45,201.35,289.5,199.67,286.68L199.67,286.68z"/>
	<path class="st1" d="M205.05,133.54c0.96-1.38,2.59-2.89,4.29-3c1.96,0.01,0.84,2.72-0.92,4.48c-1.98,1.98-4.18,2.09-4.24,0.67
		C204.16,134.94,204.72,134.02,205.05,133.54L205.05,133.54z"/>
	<path class="st1" d="M239.14,105.49c1.34-0.72,2.87-1.28,3.56-1.31c0.12,0,0.41,0.01,0.01,0.38c-1.28,1.18-5.32,3.03-5.28,2.25
		C237.45,106.54,238.09,106.05,239.14,105.49L239.14,105.49z"/>
	<path class="st1" d="M248.9,324.65c-1.2-0.49-1.62-0.85-1.43-0.95c0.05-0.02,0.12-0.02,0.15-0.02c0.94,0.02,4.48,1.6,4.47,1.85
		C251.81,325.63,250.17,325.17,248.9,324.65L248.9,324.65z"/>
	<path class="st1" d="M223.98,203.07c0.1-2.62,1.79-4.36,4.3-4.45c4.53,0.02,5.21,5.55,2.72,7.88
		C228.61,208.73,223.81,207.62,223.98,203.07L223.98,203.07z"/>
	<path class="st1" d="M239.52,300.57c-0.54-1.58,0.23-2.71,1.87-2.73c3.14,0.01,4.65,3.57,3.29,4.96
		C243.53,303.96,240.44,303.27,239.52,300.57L239.52,300.57z"/>
	<path class="st1" d="M232.59,249c-0.23-2.87,1.73-4.19,3.77-4.22c4.45,0.1,5.63,5.12,3.43,7.27
		C237.51,254.28,232.89,252.85,232.59,249L232.59,249z"/>
	<path class="st1" d="M250.8,122.77c0.14-0.53,0.77-2.26,3.09-2.38c2.63,0.03,2.95,2.85,1.54,4.28c-1.55,1.57-4.74,1.14-4.73-1.13
		C250.69,123.37,250.71,123.09,250.8,122.77L250.8,122.77z"/>
	<path class="st1" d="M270.46,284.29c0.23-1.41,1.36-2.96,3.85-3.06c3.95,0.13,3.83,4.04,1.94,5.7c-2.24,1.97-6.09,0.93-5.83-2.29
		C270.43,284.53,270.44,284.39,270.46,284.29L270.46,284.29z"/>
	<path class="st1" d="M261.88,99.57c0.34,0,0.54,0.04,0.56,0.06c0,0,0,0,0,0c-0.02,0-0.07,0-0.16-0.02
		C262.07,99.58,262,99.57,261.88,99.57L261.88,99.57z"/>
	<path class="st1" d="M262.96,326.96c0.36-0.19,0.73-0.39,1.08-0.41c0.19,0,0.17,0.08,0.09,0.15c-0.33,0.29-1.45,0.5-1.65,0.49
		c0.01-0.01,0.03-0.02,0.04-0.03C262.65,327.12,262.75,327.07,262.96,326.96L262.96,326.96z"/>
	<path class="st1" d="M274.62,149.37c0-1.45,0.86-3.03,3.29-3.13c3.97,0.11,5.21,4.4,3.33,6.22
		C279.27,154.37,274.62,153.25,274.62,149.37L274.62,149.37z"/>
	<path class="st1" d="M266.37,101.57c-0.33-0.31-0.63-0.69-0.2-0.7c0.92,0.03,2.96,1.22,2.5,1.61
		C268.42,102.68,267.39,102.55,266.37,101.57L266.37,101.57z"/>
	<path class="st1" d="M273.55,318.88c0.83-1.17,2.01-1.6,2.76-1.62c1.17,0.03,1.17,0.95,0,2.07c-1.35,1.29-3.25,1.65-3.21,0.61
		C273.1,319.65,273.26,319.29,273.55,318.88L273.55,318.88z"/>
	<path class="st1" d="M303.41,207.22c-0.03-2.62,1.55-4.42,3.91-4.48c4.49,0.12,5.16,6.07,2.71,8.2
		C307.75,212.91,303.46,211.77,303.41,207.22L303.41,207.22z"/>
	<path class="st1" d="M304.16,254.88c0.53-3.2,2.99-4.09,4.36-4.11c4.09,0.12,3.62,4.94,1.52,6.93c-2.27,2.14-5.95,1.36-5.94-2.02
		C304.1,255.26,304.16,254.89,304.16,254.88L304.16,254.88z"/>
	<path class="st1" d="M289.36,116c-0.3-0.43-1.15-1.85,0.32-1.91c2.45,0.1,5.42,3.4,4.44,4.28
		C293.36,119.04,290.88,118.23,289.36,116L289.36,116z"/>
	<path class="st1" d="M280.87,323.49c1.4-0.57,2.93-1.15,3.64-1.18c0.12,0,0.22,0.02,0.12,0.15c-0.5,0.61-5.42,2.22-6,2.09
		c-0.01-0.01-0.01-0.02-0.02-0.03C278.69,324.43,278.78,324.33,280.87,323.49L280.87,323.49z"/>
	<path class="st1" d="M338.49,200.53c-0.03-2.33,1.04-3.88,2.71-3.94c3.27,0.02,4.51,6.16,2.38,8.25
		C341.79,206.59,338.54,205.08,338.49,200.53L338.49,200.53z"/>
	<path class="st1" d="M324.28,142.2c-1.01-2.01-0.44-2.92,0.56-2.93c2.5,0.02,6.23,5.07,4.74,6.43
		C328.62,146.59,325.86,145.37,324.28,142.2L324.28,142.2z"/>
	<path class="st1" d="M281.86,102.84c-2.06-0.69-2.49-0.83-2.66-0.94c0.01-0.01,0.02-0.02,0.04-0.03c0.92,0.04,6.57,1.61,6.63,2.09
		C285.58,104.07,283.58,103.42,281.86,102.84L281.86,102.84z"/>
	<path class="st1" d="M318.54,299.31c1.47-1.67,3.1-2.76,4.25-2.83c1.22,0.02,0.64,1.55-1.3,3.42c-2.15,2.07-4.29,2.75-4.33,1.75
		C317.15,301.16,317.64,300.33,318.54,299.31L318.54,299.31z"/>
	<path class="st1" d="M340.15,269.5c1-2.17,2.53-3.63,3.89-3.72c2.29,0.02,0.74,4.42-1.36,6.42c-1.67,1.58-3.25,1.41-3.19-0.36
		C339.5,271.41,339.62,270.65,340.15,269.5L340.15,269.5z"/>
	<path class="st1" d="M354.87,236.51c0.4-1.8,1.37-3.77,2.89-3.88c2.45,0.09,1.88,6.01-0.24,8.06c-1.18,1.14-2.89,0.87-2.9-2.15
		C354.61,238.39,354.62,237.61,354.87,236.51L354.87,236.51z"/>
	<path class="st1" d="M354.32,175.9c-0.42-1.68-0.42-3.5,0.85-3.6c2.21,0.03,4.75,6.37,3.19,7.99
		C357.44,181.24,355.29,179.79,354.32,175.9L354.32,175.9z"/>
	<path class="st1" d="M323.22,120.58c-1.23-0.96-2.6-2.12-2.15-2.19c1.27,0.08,7.17,4.46,6.72,4.98
		C327.65,123.53,326.52,123.15,323.22,120.58L323.22,120.58z"/>
	<path class="st1" d="M306.69,317.52c2.49-1.13,3.63-1.65,3.99-1.71c-0.2,0.49-7.11,3.39-7.8,3.51
		C302.92,319.23,302.92,319.23,306.69,317.52L306.69,317.52z"/>
	<path class="st1" d="M367.12,252.2c0.86-2.39,1.65-3.93,2.05-4.02c0.74,0.16-1.87,7.59-2.88,8.19c-0.29,0.17-0.29-0.41-0.01-1.53
		C366.5,253.96,366.86,252.92,367.12,252.2L367.12,252.2z"/>
	<path class="st1" d="M291.27,103.47c-1.36-0.37-2.75-0.64-4.11-1.06c1.78,0.34,7,1.75,8.46,2.29c-0.08-0.01-0.08-0.01-0.57-0.15
		C293.06,103.97,292.46,103.79,291.27,103.47L291.27,103.47z"/>
	<path class="st1" d="M372.24,187.39c-0.41-1.78-0.88-3.96-0.75-4.21c0.38,0.3,2.18,7.95,2.03,8.62
		C373.28,191.71,372.61,189,372.24,187.39L372.24,187.39z"/>
	<path class="st1" d="M354.68,147.65c-0.73-1.04-1.5-2.05-2.21-3.11l0,0l1.25,1.67l3.7,5.35
		C356.48,150.29,355.6,148.95,354.68,147.65L354.68,147.65z"/>
</g>
<g>
	<path class="st2" d="M248.85,288.83c0.03-0.1,0.03-0.17,0.01-0.23c-0.02,0.03-0.04,0.07-0.06,0.1
		C248.79,288.72,248.84,288.78,248.85,288.83z"/>
	<path class="st2" d="M248.99,245.93c0.65,0.13,1.68,0.11,1.85-0.58c0.27-1.11,1.17-2.19,0.42-3.46c-0.23-0.39,0.13-0.72,0.39-1.02
		c0.52-0.6,0.91-1.16,0.51-2.09c-0.44-1.03-1.44-0.27-1.97-0.83c-0.64,0.09-0.49,0.6-0.55,1.01c-0.29,1.89-0.25,3.85-1.06,5.65
		C248.33,245.15,248.32,245.8,248.99,245.93z"/>
	<path class="st2" d="M268.08,305.12c-0.11,0.3-0.01,0.5,0.12,0.71c0.28,0.46,0.24,0.81-0.4,0.84c0,0.02,0,0.05,0.01,0.11
		c0.41,0.17,0.84,0.34,1.39,0.57C269.26,306.3,269.01,305.56,268.08,305.12z"/>
	<path class="st2" d="M260.71,295.33c-0.38,0-0.87,0.83-0.42,1.54c0.12,0.2,0.04,0.44-0.09,0.67c-0.22,0.36,0.1,0.53,0.35,0.62
		c0.34,0.12,0.56-0.17,0.64-0.42c0.1-0.31,0.06-0.67,0.08-0.93C261.2,296.19,261.48,295.33,260.71,295.33z"/>
	<path class="st2" d="M278.68,145.99c-0.41-0.12-0.83-0.07-1.24-0.02c-0.25,0.03-0.5,0.07-0.75,0.07c-0.22,0-0.44-0.03-0.66-0.11
		c0.04-0.22,0.24-0.44,0.4-0.65c0.27-0.36,0.46-0.72-0.34-1.12c0,0,0,0,0,0l0.01,0c-0.07-0.45-0.17-0.88-0.06-1.36
		c0.06-0.28,0.1-0.59,0-0.84c-0.08-0.19-0.24-0.35-0.54-0.44c-0.01-0.32,0.28-0.55,0.2-0.94c-0.48-2.18-1.87-4.03-2.17-6.31
		c-0.11-0.83-0.96-1.54,0.09-2.33c0.17-0.12,0.08-0.47-0.19-0.61c-0.53-0.27-0.26-0.54,0.01-0.77c0.33-0.29,0.53-0.54,0.62-0.76
		c0.21-0.51-0.12-0.87-0.63-1.2c-0.04-0.03-0.08-0.05-0.13-0.07c-0.02-0.01-0.03-0.02-0.05-0.03c-0.12-0.07-0.25-0.14-0.39-0.2
		c-1.09-1.37-1.17-3.1-1.66-4.69c-0.07-0.23-0.15-0.45-0.24-0.67c0.23-1.15-0.84-2.06-0.58-3.24c0.06-0.28-0.29-0.25-0.55-0.16
		c-0.13,0.04-0.24,0.1-0.33,0.17c-0.19,0.14-0.32,0.33-0.42,0.54c0,0.01-0.01,0.02-0.01,0.03c-0.03,0.07-0.06,0.14-0.09,0.21
		c-0.01,0.03-0.02,0.06-0.03,0.08c-0.2,0.12-0.39,0.25-0.59,0.37c-0.31-0.08-0.73-0.07-0.6,0.33c0.51,1.55-0.69,1.73-1.62,2.08
		c-0.6,0.23-0.76,0.42-0.61,1.16c0.1,0.51,0.18,1.03,0.22,1.56c0,0.02,0,0.04,0,0.05c-0.04,0.34-0.07,0.69-0.1,1.03
		c-0.03,0.35-0.05,0.7-0.08,1.04c-0.01,0.16-0.02,0.32-0.04,0.47c0,0.01,0,0.01,0,0.02c0,0,0,0.01,0,0.01c0,0,0,0.01,0,0.01
		c0,0,0,0,0,0c0,0,0,0,0,0c0.17,0.54,0.34,1.1,0.51,1.66c-0.01,1.87-0.02,3.73-0.04,5.6c0,0.37,0.11,0.66,0.42,0.84
		c0.04,0.02,0.09,0.05,0.14,0.07c-0.02,0.09,0,0.17,0.06,0.24c-0.01,0.88-0.02,1.76-0.03,2.64c-0.04,0.08-0.06,0.16-0.1,0.24
		c-0.06,0.15-0.12,0.31-0.17,0.46c-0.12,0.38-0.21,0.77-0.28,1.16c-0.12,0.63-0.21,1.28-0.34,1.91c-0.19,1.06-0.2,2.07-1.32,2.85
		c-0.74,0.51-1.3,1.94-0.54,2.65c0.74,0.69,0.59,1.29,0.63,2.01c0.01,0.08,0.01,0.16,0.01,0.24c0,0.08,0,0.17-0.01,0.25
		c-0.02,0.47-0.06,0.95,0.12,1.41c-0.15,0.07-0.24,0.16-0.29,0.26c-0.11,0.2-0.08,0.45-0.08,0.68c0,0.12-0.01,0.23-0.04,0.34
		c-0.59,1.89,0.39,3.91-0.53,5.76c-0.14,0.25-0.24,0.5-0.3,0.76c-0.02,0.1-0.04,0.19-0.06,0.29c-0.02,0.15-0.04,0.3-0.04,0.45
		c0,0.02,0,0.03,0,0.05c-0.03,0.88,0.14,1.78-0.04,2.64c-0.18,0.49-0.35,1-0.53,1.46c-0.48,1.24-0.17,2.68-0.69,3.75
		c-0.9,1.89-0.65,4.16-2.11,5.85c-0.25,0.29-0.64,1.08-0.1,1.67c0.11,0.84,0.4,1.65,0.43,2.49c-0.1,0.61-0.27,1.2-0.47,1.78
		c-0.32,0.42-0.83,0.7-0.83,1.12c-0.01,0.35-0.02,0.69-0.04,1.04c-0.07,1.51-0.16,3.03,0.61,4.45c0.16,1.1,0.01,2.2-0.01,3.31
		c-0.01,0.37,0,0.74,0.04,1.11c0.13,1.27,0.15,2.67-0.26,3.85c-0.47,1.36-0.69,2.74-0.95,4.12c-0.07,0.04-0.12,0.07-0.17,0.11
		c-0.32,0.28-0.18,0.67-0.1,1.05c-0.1,0.04-0.17,0.08-0.23,0.14c-0.21,0.21-0.16,0.53-0.21,0.82c-0.01,0.03-0.01,0.06-0.02,0.09
		c-0.02,0.05-0.04,0.1-0.07,0.15c-0.06,0.02-0.1,0.05-0.1,0.1c0,0.02,0,0.04,0,0.06c-0.07,0.22-0.14,0.45-0.21,0.67
		c-0.03,0.04-0.05,0.08-0.07,0.12c-0.07,0.17-0.08,0.34-0.07,0.51c0.01,0.13,0.03,0.26,0.04,0.39c-0.16,0.45-0.31,0.9-0.47,1.35
		c-0.01,0.02-0.01,0.03-0.02,0.05c0,0,0,0.01-0.01,0.02l-0.03,0.05c0,0,0,0,0,0c-0.36,0.59-0.79,1.13-1.15,1.73
		c-0.22,0.36-0.41,0.73-0.54,1.15c-0.64,1.97-1.43,3.89-1.88,5.93c-0.1,0.46-0.61,1.17-0.93,1.17c-0.96-0.01-0.69,0.62-0.72,1.07
		c-0.15,1.81,0.41,3.56,0.48,5.35c-0.13,0.24-0.08,0.44,0.01,0.64c0.01,0.02,0.01,0.03,0.02,0.04c0.08,0.18,0.19,0.35,0.21,0.53
		c0.18,1.4,1.05,2.94,0.21,4.19c-1.47,2.19-1.4,4.73-1.95,7.11c-0.19,0.82,0.44,1.88,1.22,2.54c0.83,0.7,1.42-0.11,1.89-0.52
		c0.63-0.55,1.04-0.09,1.33,0.18c0.45,0.41-0.08,0.6-0.38,0.81c-0.43,0.29-0.42,0.77-0.09,1c1.17,0.85,0.07,1.69-0.11,2.4
		c-0.11,0.44-0.4,0.93-0.37,1.45c0.08,1.75-1.51,3.29-0.62,5.13c0.03,0.06-0.02,0.21-0.08,0.27c-0.92,0.81-0.44,1.53,0.07,2.14
		c-0.26,0.6-1.32,0.35-1.21,1.16c0.14,1.01,0.82,1.93,0.36,3.05c-0.17,0.41,0.27,0.54,0.65,0.55c0.33,0.01,0.59,0.14,0.51,0.52
		c-0.07,0.33-0.38,0.21-0.6,0.25c-0.29,0.06-0.94-0.08-0.72,0.37c0.54,1.12-0.53,1.78-0.59,2.71c-0.01,0.16,0.09,1.02-0.76,0.6
		c-0.39-0.19-0.98,0.05-0.85-0.73c0.05-0.29-0.06-0.8-0.33-0.63c-0.73,0.47-1.31-0.18-1.96-0.08c-0.29,0.05-0.62-0.02-0.71,0.36
		c-0.04,0.16-0.03,0.47,0.06,0.51c1.67,0.86-0.02,1.38-0.31,1.48c-0.86,0.28-1.03,1.11-1.59,1.61c-0.37,0.33-0.18,1.02,0.11,1.44
		c0.13,0.19,0.74,0.19,0.77-0.07c0.19-2.15,1.21-0.6,1.86-0.41c0.35,0.1,0.61,0.1,0.96,0.01c0.38-0.1,1-0.26,1.05,0.39
		c0.04,0.53,0.4,1.36-0.29,1.57c-0.85,0.26-0.78,0.55-0.37,1.1c0.12,0.17,0.21,0.44-0.02,0.47c-0.63,0.09-0.72,0.31-0.4,0.84
		c0.31,0.51,0.77,0.66,1.25,0.44c0.63-0.29,1.2-0.38,1.81-0.02c0.2,0.12,0.48,0.17,0.5,0.48c0.03,0.48-0.38,0.28-0.59,0.4
		c-1.05,0.57-2.06-0.25-3.15,0.1c1.2,0.01,0.71,0.99,0.84,1.58c0.01,0.04,0.01,0.08,0,0.11c-0.01,0.03-0.03,0.05-0.06,0.07
		c-0.15,0.09-0.53,0-0.76,0.05c0-0.01,0-0.02,0-0.03c-0.01-0.01-0.02-0.02-0.03-0.03c0.02-0.27,0.17-0.6-0.04-0.77
		c-0.07-0.06-0.19-0.1-0.37-0.11c-0.17-0.01-0.42-0.03-0.43,0.23c-0.03,0.59,0.56,0.43,0.84,0.65c0,0.02,0,0.04,0,0.06c0,0,0,0,0,0
		l0,0l0,0c0.01,0,0.02,0,0.04-0.01c0,0.36,0.36,0.61,0.39,0.87c0.05,0.49,1.23,1.78-0.7,1.26c-0.63-0.17-1.12,0.24-1.35,0.85
		c-0.2,0.54-0.33,0.78-0.57,0.78c-0.01,0-0.02,0-0.03,0c-0.01-0.01-0.02-0.03-0.04-0.04c-0.18-0.2-0.43-0.34-0.78-0.39c0,0,0,0,0,0
		c0,0,0,0,0,0c0.38,0.27,0.63,0.42,0.81,0.44c0.28,0.33,0.4,0.78,0.55,1.21c-0.04,0.4,0.17,0.86-0.25,1.19
		c-0.26,0.2-0.89,0.36-0.38,0.75c0.03,0.02,0.05,0.04,0.08,0.05c0.36,0.19,0.41-0.5,0.7-0.64c0.07,0.09,0.14,0.18,0.21,0.28
		c-0.06,0.21,0.05,0.47,0.22,0.35c0.08-0.06,0.15-0.1,0.21-0.13c0.43-0.2,0.41,0.27,0.51,0.57c0.2,0.52,0.91,0.12,0.94,0.2
		c0,0.01,0,0.01,0,0.02c-0.44,1.11,1.04,1.49,0.86,2.4c-0.21,1.06-0.72-0.65-1.02,0.07c-0.02,0.05-0.06,0.09-0.06,0.13
		c-0.11,1.11-1.01,0.48-1.54,0.86c0.1-0.73,0.28-1.3,0.24-1.86c-0.04-0.44-0.57-1.17-0.82-0.87c-0.39,0.46-0.34,1.3-0.45,1.98
		c-0.06,0.4,0.14,0.55,0.55,0.68c1.48,0.49,1.64,1.11,0.86,2.54c-0.3,0.55-0.68,1.32-0.09,1.77c0.63,0.48,0.56,0.96,0.47,1.56
		c-0.05,0.34-0.05,0.68,0.25,0.95c0.13,0.12,0.39,0.13,0.46,0.31c0.15-0.26,0.28-0.6,0.48-0.64c0.34-0.07,0.74,0.14,1.11,0.19
		c0.39,0.06,0.89,0.15,0.62-0.54c-0.1-0.26-0.41-0.61,0.11-0.58c0.51,0.04,1.19-0.5,1.55,0.32c0.12,0.26,0.67,0.51,0.14,0.81
		c-0.66,0.38-0.53,0.96-0.57,1.54c-0.02,0.28,0.2,0.79-0.34,0.8c-0.46,0.01-1.02-0.04-1.04,0.49c-0.02,0.54,0.53,0.59,1.01,0.55
		c0.41-0.03,0.48,0.29,0.45,0.59c-0.05,0.44-0.3,0.56-0.72,0.4c-0.32-0.12-0.64-0.21-0.96-0.33c-0.47-0.17-1.08-0.89-1.39-0.3
		c-0.4,0.77,0.57,0.95,1.07,1.26c0.2,0.12,0.47,0.14,0.67,0.27c0.57,0.37,1.66,0.49,0.72,1.61c-0.26,0.3-0.03,0.8,0.33,1.02
		c1.13,0.7,2.33,1.29,3.47,2.07c-0.21-0.81,0.27-2.18-0.13-2.14c-1.19,0.12-1.09-1.18-1.95-1.32c-0.74-0.12-0.7-0.7-0.73-1.25
		c-0.02-0.33-0.07-0.64-0.34-0.84c0.05-0.05,0.12-0.11,0.18-0.17c0.06-0.06,0.11-0.1,0.11-0.09c0.36,0.34,1.27-0.09,1.21,0.87
		c-0.03,0.48-0.04,1.18,0.58,1.16c1.28-0.04,1.59,1.24,2.54,1.64c0.6,0.25,0.53,0.74,0.11,1.18c-0.59,0.61-0.29,1.04,0.38,1.04
		c0.59,0,0.78,0.56,1.23,0.62c0.2-0.2,0.31-0.38,0.36-0.53c0.2-0.66-0.83-0.92-0.98-1.47c1.13-0.44,1.34-0.63,1.37-1.99
		c0-0.19,0-0.41,0-0.66c-0.01-1.34,1.42-3.26,2.69-3.51c0.36-0.07,0.99-0.37,1.07,0.29c0.06,0.53-0.45,0.73-0.93,0.63
		c-0.91-0.17-1.07,0.23-0.95,1.03c0.05,0.36-0.21,0.77-0.18,1.14c0.02,0.4-0.15,0.96,0.28,1.17c0.31,0.15,0.78,0.08,1.07-0.26
		c0.37-0.44,0.69-0.45,1.04,0.05c0.44,0.64-0.26,0.8-0.49,0.89c-1.2,0.45-1,1.26-0.65,2.14c0.12,0.31,0.27,0.6,0.42,0.9
		c0.1,0.2,0.36,0.4,0.1,0.63c-0.27,0.24-0.38-0.12-0.56-0.17c-0.76-0.24-2.15-0.69-2.25-0.51c-0.64,1.23-1.7,0.79-2.61,0.88
		c-0.56,0.06-0.64,0.43-0.61,0.81c0.04,0.42,0.51,0.63,0.76,0.46c0.87-0.59,1.36,0.15,1.88,0.53c0.47,0.34,0.82,0.27,1.31,0.18
		c1.5-0.27,2.9,0.26,4.43,0.56c-0.98,1.11-1.96,0.09-2.87,0.29c-0.26,0.06-0.64-0.12-0.76,0.24c-0.11,0.33,0.07,0.59,0.3,0.9
		c0.81,1.1,1.96,1.46,3.19,1.55c0.71,0.06,1.06,1.32,1.97,0.57c-0.26-0.73-1.05-0.94-1.59-1.72c1.03,0.03,1.8-0.18,2.61,0.17
		c0.34,0.15,0.95,0.34,1.08-0.28c0.21-1.05,0.92-0.95,1.67-0.85c-0.81-1.85-2.62-1.3-3.99-1.5c-0.8-0.12-0.91-0.19-0.94-0.91
		c-0.12-2.87,0.49-5.7,0.34-8.57c-0.03-0.46-0.06-1.16-0.45-0.88c-1.01,0.72-1.42-0.56-2.21-0.46c-0.39,0.05-0.46-0.35-0.37-0.76
		c0.11-0.51,0.82-0.63,0.83-0.62c0.72,1.05,2.23-0.03,2.88,1.32c0.4-1.17,0.2-1.73-0.84-2.06c-2.17-0.69-4.3-1.46-6.65-1.2
		c-0.52,0.06-1.07-0.14-1.6-0.15c-1.13-0.02-1.68-0.86-1.57-1.67c0.13-0.98-0.18-1.95,0.17-2.92c0.33-0.9-0.53-1.71-1.46-1.78
		c-0.52-0.03-1.23,0.1-1.58-0.59c-0.51-1.01,0.25-5.36,0.94-6.28c1.02-1.36,1.94-3.19,1.68-4.61c-0.36-1.91,0.27-3.32,1.09-4.62
		c1.34-2.13,1.17-4.39,1.16-6.65c0-0.96-0.01-1.78,0.74-2.47c0.39-0.36,0.67-0.73,0.2-1.25c-0.46-0.5-0.9-1.03-1.35-1.55
		c0.19-0.24,0.54-0.28,0.88-0.22c1.14,0.19,0.96-1.02,1.48-1.49c0.27-0.24-0.52-1.06-1.01-1.2c-0.95-0.26-1.32-0.46-0.93-1.58
		c0.14-0.39,0.34-1.27,0.06-1.73c-0.61-1,0.14-2.5-1.26-3.21c-0.28-0.14-0.3-0.69-0.22-1.19c0.17-1.08,0.62-2.01,1.05-2.99
		c0.69-1.59,0.1-3.36,0.21-5.06c0.18-2.9,0.4-5.71,1.43-7.81c0.11-0.22,0.33-0.48,0.28-0.65c-0.33-1.15,0.52-1.62,1.23-2.06
		c0.78-0.48,0.81-1.02,0.64-1.82c-0.31-1.45-0.79-2.95-0.68-4.38c0.03-0.35,0.05-0.7,0.07-1.05c0.06-1.06,0.1-2.11,0.2-3.17
		c-0.05-0.25,0.04-0.45,0.19-0.59c0.05-0.05,0.11-0.09,0.17-0.13c1.52-0.87,2.54-2.01,2.18-3.92c0.19-1.16-0.5-2.44,0.43-3.49
		c0.64-0.72,0.44-2.05,1.27-2.4c0.91-0.38,0.97-0.95,1-1.66c0.01-0.25,0.02-0.51,0.02-0.76c0.01-0.76,0-1.53,0.01-2.29
		c0.44-0.27,0.81-1,0.42-1.07c-1.44-0.26-0.8-1.54-1.31-2.22c-0.08-0.11-0.17-0.21-0.25-0.32c-0.29-0.74,0.67-1.56-0.02-2.19
		c-0.53-0.48-0.67-0.99-0.71-1.63c-0.01-0.08-0.02-0.16-0.03-0.24c-0.11-0.54-0.44-0.97-0.88-1.33c0.02-0.44,0.04-0.88,0.06-1.33
		c0.83-1.07,1.1-2.4,1.7-3.59c0.24-0.47,0.44-0.94,0.6-1.42c0.48-1.44,0.54-2.91-0.16-4.44c-0.03-0.17-0.06-0.34-0.09-0.5
		c0.36-0.33,0.67-0.67,0.94-1.04c0.58-0.81,0.9-1.74,0.8-2.85c0.06-0.23,0.12-0.45,0.17-0.68c0.44-0.32,0.87-0.62,1.25-1.07
		c1.43-1.69,1.49-4.4,4.01-5.3c0.41-0.15,0.56-0.86,0.45-1.36c-0.03-0.12-0.1-0.18-0.2-0.21c-0.03-0.01-0.07-0.01-0.1-0.02
		c-0.15-0.01-0.32,0.04-0.46,0.07c0-0.07-0.03-0.12-0.08-0.14c-0.02-0.01-0.04-0.01-0.06-0.01l0-0.01c0.02-0.24-0.02-0.45-0.14-0.64
		c-0.04-0.06-0.08-0.12-0.14-0.18c0.78-1.63,0.76-3.29,0.3-5.01c-0.16-0.59-0.29-1.36,0.62-1.71c0.49-0.19,0.55-0.89,0.34-1.15
		c-1.11-1.39-0.14-1.83,0.9-2.41c0.08-0.04,0.17-0.09,0.26-0.13c0.08-0.04,0.15-0.08,0.23-0.13c0.11-0.07,0.21-0.15,0.29-0.25
		c0.07-0.09,0.12-0.19,0.14-0.31c0.85-0.31,1.61-0.7,2.19-1.26c0.14-0.14,0.28-0.29,0.4-0.45c0.06-0.08,0.12-0.17,0.17-0.25
		c0.11-0.18,0.2-0.36,0.27-0.57c0.11-0.3,0.19-0.64,0.23-1.01c0.26-0.26,0.46-0.51,0.62-0.76
		C280.06,147.67,279.83,146.65,278.68,145.99z"/>
</g>
<g>
	<path class="st3" d="M302.8,320.29c-0.13,0.06-0.26,0.11-0.39,0.17c8.71-3.46,12.31-4.89,21.58-10.57
		c0.29-0.19,0.58-0.38,0.87-0.57c-7.63,4.65-10.48,6.39-22.01,10.94C302.84,320.27,302.82,320.28,302.8,320.29L302.8,320.29z"/>
	<path class="st3" d="M332.13,304.12c0.24-0.18,0.47-0.37,0.71-0.55c5.05-4.35,5.14-4.43,7.36-7.06c-0.16,0.14-0.32,0.27-0.47,0.41
		c-1.02,0.96-2.24,2.39-3.19,3.41C335.34,301.6,333.5,303.04,332.13,304.12L332.13,304.12z"/>
	<path class="st3" d="M303.53,319.9c13.78-6.22,20.78-9.94,34.68-21.94l-0.02-0.06C326.46,307.82,320.04,312.59,303.53,319.9
		C303.53,319.9,303.53,319.9,303.53,319.9L303.53,319.9z"/>
	<path class="st3" d="M343.59,132.87c-0.2-0.21-0.41-0.41-0.61-0.62c-0.17-0.17-0.34-0.34-0.52-0.51
		c-7.8-7.13-22.31-20.4-49.03-28.41C311.73,110.17,326.19,115.57,343.59,132.87L343.59,132.87z"/>
	<path class="st3" d="M349.66,139.53c-0.17-0.2-0.33-0.39-0.5-0.59c-0.91-0.92-2.14-2.14-3.13-2.97c0.15,0.17,0.29,0.36,0.46,0.52
		C347.43,137.42,348.78,138.55,349.66,139.53L349.66,139.53z"/>
	<path class="st3" d="M368.44,186.01c0.08,0.11,0.17,0.27,0.24,0.38c-0.62-9.56-1.47-22.65-13.01-39.08c-0.24-0.34-0.48-0.67-0.72-1
		c5.49,8.36,13.01,19.8,13.46,39.65C368.42,185.97,368.43,185.99,368.44,186.01L368.44,186.01z"/>
	<path class="st3" d="M293.53,107c0.16,0.08,0.31,0.16,0.47,0.24c0.44-1.2,0.56-1.52-0.19-2.58c-0.58-0.82-1.98-1.48-3.01-1.97
		c-0.23-0.06-0.45-0.13-0.68-0.19c1.68,0.8,2.52,1.2,3.23,2.14c0.67,0.9,0.4,1.59,0.11,2.32C293.48,106.98,293.51,106.99,293.53,107
		L293.53,107z"/>
	<path class="st3" d="M341.86,132.18c-11.58-10.62-23.97-20.81-48.1-28.72C309.12,108.87,323.34,114.77,341.86,132.18L341.86,132.18
		z"/>
	<path class="st3" d="M342.94,133.62c-0.09-0.1-10.93-11.16-46.99-25.17c1.45,1.18,4.02,1.7,5.75,2.4
		C326.22,120.75,337.94,129.77,342.94,133.62L342.94,133.62z"/>
	<path class="st3" d="M301.65,320.52c0.1-0.04,9.64-3.64,16.03-11.79c-0.17,0.1-0.36,0.18-0.53,0.3c-1.03,0.76-2,2.23-2.85,3.18
		C314.15,312.38,310.48,316.41,301.65,320.52L301.65,320.52z"/>
	<path class="st3" d="M344.44,291.85c15.7-17.03,22.72-29.43,28.9-51.04c0.21-0.85,0.41-1.7,0.6-2.55
		c-3.15,11.86-8.42,31.71-29.5,53.59C344.44,291.84,344.44,291.85,344.44,291.85L344.44,291.85z"/>
	<path class="st3" d="M376.61,210.47c-0.01-0.3-0.02-0.6-0.03-0.9c-0.64-5.46-1.19-10.18-6.51-17.96c0.01,0.22-0.05,0.44,0.03,0.66
		c0.5,1.45,1.86,3.07,2.66,4.38C372.91,196.9,376.36,202.67,376.61,210.47L376.61,210.47z"/>
	<path class="st3" d="M360.21,225.83c0.07,0.09,0.14,0.22,0.2,0.31c3.61-9.18,7.03-17.85,8.1-32.45c-0.12-0.17-0.15-0.2-0.27-0.41
		c-0.99,9.17-1.92,17.82-8.06,32.5C360.18,225.79,360.2,225.81,360.21,225.83L360.21,225.83z"/>
	<path class="st3" d="M360.9,228.56c0,0.29-0.02,0.54-0.03,0.65c9.84-4.5,14.98-7.72,15.74-12.84c0.01-0.26,0.01-0.53,0.02-0.8
		c-0.8,3.79-2.4,6.94-15.73,12.89C360.9,228.5,360.9,228.53,360.9,228.56L360.9,228.56z"/>
	<path class="st3" d="M275.47,326.58c7.27-1.84,20.81-5.28,39.75-17.13l0.05-0.19c-8.38,5.01-22.42,13.41-39.79,17.31
		C275.49,326.57,275.48,326.57,275.47,326.58L275.47,326.58z"/>
	<path class="st3" d="M340.4,155.89c0.11,0.15,0.21,0.3,0.32,0.45c5.64-6.74,8.13-11.85,5.14-19.53c-0.16-0.17-0.33-0.34-0.49-0.51
		c2.26,6.4,2.09,10.95-5.02,19.52C340.36,155.84,340.39,155.87,340.4,155.89L340.4,155.89z"/>
	<path class="st3" d="M367.89,185.44c0.06,0.04,0.14,0.1,0.19,0.15c-2.16-11.65-5.11-27.59-20.44-47.17l-0.22-0.15
		c6.97,9.46,16.52,22.41,20.43,47.16C367.86,185.42,367.88,185.43,367.89,185.44L367.89,185.44z"/>
	<path class="st3" d="M366.76,187.25c0.01-0.94-6.77-12.13-24.72-27.34c0,0.12-0.01,0.27-0.02,0.39
		C351.3,168.68,359.31,175.91,366.76,187.25L366.76,187.25z"/>
	<path class="st3" d="M321.27,305.93c-0.1,0.1-0.19,0.2-0.29,0.3c5.45-2.49,11.63-5.31,18.3-9.75c0.14-0.16,0.29-0.31,0.44-0.47
		c-4.91,3.11-8.79,5.56-18.4,9.88C321.3,305.89,321.28,305.91,321.27,305.93L321.27,305.93z"/>
	<path class="st3" d="M343.54,292.31c0.2-0.16,20.11-18.35,15.84-58.74c-0.07,0.07-0.16,0.16-0.24,0.23
		C360.47,252.93,360.22,270.53,343.54,292.31L343.54,292.31z"/>
	<path class="st3" d="M341.88,293.8c0.08-0.08,7.89-7.93-6.14-23.11c-0.18,0.27-0.23,0.33-0.42,0.58
		C341.15,277.91,346.03,284.62,341.88,293.8L341.88,293.8z"/>
	<path class="st3" d="M262.59,98.62c0.61,0.05,1.54,0,1.55-0.01c-0.08-0.01-0.16-0.01-0.24-0.01l-0.78-0.01c0.11,0,0.22,0,0.32,0.01
		c-0.29,0.04-0.58,0.01-0.87,0.02C262.58,98.62,262.59,98.62,262.59,98.62L262.59,98.62z"/>
	<path class="st3" d="M288.82,102.15c-2.72-0.74-15.99-2.68-25.98-3.5C286.12,101.65,286.12,101.65,288.82,102.15L288.82,102.15z"/>
	<path class="st3" d="M287.21,101.6c0.15,0.04,0.31,0.07,0.46,0.11c-6.34-1.5-8.96-2.12-18.41-2.88l-0.93-0.06
		c8.12,0.65,10.82,0.92,18.81,2.81C287.16,101.59,287.19,101.6,287.21,101.6L287.21,101.6z"/>
	<path class="st3" d="M269.76,327.94c0.39-0.03,0.78-0.06,1.16-0.09c12.15-1.33,15.29-1.98,25.86-5.34
		C288.99,324.96,282.25,327.06,269.76,327.94L269.76,327.94z"/>
	<path class="st3" d="M274.09,326.94c-0.15,0.03-0.29,0.06-0.44,0.09c9.43-1.46,15.64-2.75,23.72-4.92
		c0.21-0.08,0.41-0.15,0.62-0.23c-6.27,1.69-12.39,3.24-23.85,5.05C274.13,326.93,274.11,326.94,274.09,326.94L274.09,326.94z"/>
	<path class="st3" d="M292.52,316.64c-0.06,0.07-0.15,0.16-0.22,0.23c10.64-3.48,16.31-5.59,23.65-8.48
		c0.13-0.13,0.26-0.26,0.39-0.39c-8.56,3.38-12.72,4.92-23.8,8.61C292.54,316.61,292.53,316.63,292.52,316.64L292.52,316.64z"/>
	<path class="st3" d="M320.5,304.93c0.1-0.05,10.52-8.57,13.37-32.33c-0.11,0.07-0.26,0.15-0.38,0.21
		C331.81,283.37,330.36,292.48,320.5,304.93L320.5,304.93z"/>
	<path class="st3" d="M274.86,326.6c0.74-0.14,7.41-1.52,13.82-7.49c-0.12,0.04-0.26,0.05-0.37,0.12c-1.2,0.65-2.47,2.02-3.52,2.88
		C282.29,324.15,276.64,326.08,274.86,326.6L274.86,326.6z"/>
	<path class="st3" d="M262.35,328.21l0.8-0.01c7.18-0.12,8.81-0.58,9.43-0.96c-0.18,0.03-0.36,0.06-0.54,0.09
		c-0.11,0.02-0.23,0.11-0.32,0.16c-0.48,0.24-2.35,0.41-3.06,0.48C267.91,328.05,266.1,328.18,262.35,328.21L262.35,328.21z"/>
	<path class="st3" d="M261.84,328.21c2.52-0.08,3.79-0.12,8.73-0.74c0.15-0.03,0.3-0.06,0.45-0.08
		C266.58,327.95,265.03,328.14,261.84,328.21L261.84,328.21L261.84,328.21z"/>
	<path class="st3" d="M358.35,225.4c0.09-0.04,0.21-0.09,0.3-0.13c-0.63-12.72-1.69-34-17.3-63.82c-0.09,0.04-0.21,0.08-0.3,0.12
		C349.21,178.18,357.26,196.79,358.35,225.4L358.35,225.4z"/>
	<path class="st3" d="M336.47,265.82c0.04,0.04,0.09,0.11,0.13,0.15c6.21-7.93,12.63-16.12,20.37-32.09
		c-0.13-0.15-0.16-0.18-0.28-0.37c-5.13,10.15-8.84,17.48-20.26,32.27C336.45,265.79,336.46,265.81,336.47,265.82L336.47,265.82z"/>
	<path class="st3" d="M333.18,266.32c0.1-0.07,0.23-0.17,0.32-0.25c-1.26-7.61-4.6-27.83-30.89-65.29
		c-0.16,0.14-0.38,0.32-0.56,0.44C315.47,220.91,329.65,244.03,333.18,266.32L333.18,266.32z"/>
	<path class="st3" d="M356.47,228.46c0.04-0.17,0.11-0.39,0.16-0.55c-11.95-9.7-27.27-18.19-52.87-29.31
		c-0.04,0.16-0.09,0.38-0.14,0.54C325.84,209.5,341.89,216.98,356.47,228.46L356.47,228.46z"/>
	<path class="st3" d="M275.97,150.2c0.18-0.02,0.43-0.04,0.62-0.04c0,0,0,0,0,0c0,0,0,0,0,0c0,0,0,0,0,0s0,0,0,0c0,0,0,0,0,0
		c0,0,0,0,0,0c0,0,0,0,0,0c0,0,0,0,0,0c-1.66-8.69-6.7-35.13-12.06-47.89c-0.18,0.01-0.18,0.01-0.18,0.01h0c0,0,0,0,0,0h0h0
		c0,0,0,0,0,0h0h0C265.72,105.89,269.87,116.84,275.97,150.2L275.97,150.2z"/>
	<path class="st3" d="M290.97,106.76c-0.91-0.68-18.97-6.66-27.69-8.04C268.53,99.81,275.06,101.17,290.97,106.76L290.97,106.76z"/>
	<path class="st3" d="M291.74,107.28c-0.43-0.28-0.44-0.29-4.15-1.11c-7.5-1.65-15.04-3.11-22.54-4.78c0.01,0.04,0.03,0.1,0.05,0.15
		C273.95,103.56,282.88,105.28,291.74,107.28L291.74,107.28z"/>
	<path class="st3" d="M262.25,328.21c5.08-0.5,10.84-1.07,25.07-8.99l-0.05-0.12c-7.35,4-15.69,8.54-25,9.11
		C262.26,328.21,262.25,328.21,262.25,328.21L262.25,328.21z"/>
	<path class="st3" d="M336.87,153.97c0.07-0.02,0.16-0.04,0.22-0.06c-9.85-17.22-20.52-31.39-40.57-44.57
		C309.92,118.75,322.2,128.61,336.87,153.97L336.87,153.97z"/>
	<path class="st3" d="M279.24,151.04c0.12,0.09,0.27,0.23,0.38,0.33c13.1-14.73,24-30.06,15.19-42.41
		c-0.14-0.06-0.34-0.15-0.48-0.21c5.63,8.8,5.21,19.35-15.16,42.24C279.19,151,279.22,151.02,279.24,151.04L279.24,151.04z"/>
	<path class="st3" d="M302.89,194.47c0.14,0.19,0.22,0.33,0.31,0.48c15.32-11.76,27.12-22.17,34.87-34.77
		c-0.19-0.21-0.27-0.31-0.46-0.56c-5.53,8.43-12.34,17.43-34.79,34.77C302.85,194.42,302.88,194.45,302.89,194.47L302.89,194.47z"/>
	<path class="st3" d="M336.61,157.82c-0.08-0.19-0.18-0.45-0.25-0.64c-11.36-0.86-24.15-1.76-55.56-3.41
		c0.02,0.19,0.04,0.44,0.05,0.63C294.54,155.13,317.47,156.35,336.61,157.82L336.61,157.82z"/>
	<path class="st3" d="M261.84,328.21c-0.17,0-0.35-0.01-0.52-0.01C261.49,328.21,261.66,328.21,261.84,328.21L261.84,328.21z"/>
	<path class="st3" d="M261.84,328.21L261.84,328.21c3.5,0,4.94-1.1,4.29-3.25c-0.07,0.04-0.14,0.08-0.21,0.12
		c0.06,0.71,0.04,1.89-0.53,2.33C264.68,327.95,263.52,328.21,261.84,328.21L261.84,328.21z"/>
	<path class="st3" d="M267.08,323.73c-0.01,0.04-0.02,0.09-0.03,0.12c6.89-1.82,20.55-5.54,20.68-5.57c0.09-0.1,0.19-0.2,0.29-0.29
		c-6.98,1.91-13.97,3.76-20.93,5.72C267.08,323.71,267.08,323.72,267.08,323.73L267.08,323.73z"/>
	<path class="st3" d="M331.65,268.21c0.08-0.14,0.2-0.33,0.29-0.47c-10.42-7.2-23.28-13.52-47.43-23.31
		c-0.05,0.16-0.13,0.37-0.2,0.52C311.67,256.79,319.03,259.97,331.65,268.21L331.65,268.21z"/>
	<path class="st3" d="M292.67,315.61c10.8-7.93,23.9-19.19,39.09-42.55c-0.11-0.04-0.25-0.1-0.36-0.16
		c-6.79,10.2-18.15,27.26-38.76,42.7C292.66,315.61,292.67,315.61,292.67,315.61L292.67,315.61z"/>
	<path class="st3" d="M289.57,316.73c0.15-0.1,0.3-0.2,0.45-0.29c-2.61-5.4-6.98-9.12-19.47-16.58c-0.12,0.2-0.15,0.24-0.29,0.42
		C282.8,307.77,287.13,311.46,289.57,316.73L289.57,316.73z"/>
	<path class="st3" d="M270.81,297.2c0.04,0.1,0.08,0.24,0.11,0.34c39.51-16.01,53.71-23.23,59.78-26.32
		c0.01-0.18,0.03-0.41,0.06-0.58c-18.17,9.06-26.2,12.41-59.97,26.5C270.79,297.16,270.8,297.18,270.81,297.2L270.81,297.2z"/>
	<path class="st3" d="M273.76,151.38c0.09-0.1,0.22-0.23,0.31-0.33c-20.86-19.87-25.2-24.01-30.19-32.95
		c-0.09,0.07-0.21,0.15-0.3,0.22C249.32,128.52,256.8,135.86,273.76,151.38L273.76,151.38z"/>
	<path class="st3" d="M273.03,153.55c0.01-0.18,0.03-0.43,0.05-0.61c-25.16-4.09-36.64-5.95-54.45-9.62
		c-0.08,0.17-0.19,0.4-0.28,0.57C236.62,147.63,247.28,149.36,273.03,153.55L273.03,153.55z"/>
	<path class="st3" d="M282.06,239.02c0.15,0.05,0.35,0.14,0.5,0.21c6.35-13.35,9.97-21.53,15.93-37.59
		c-0.31-0.11-0.37-0.14-0.67-0.28c-4.85,12.79-7.52,19.84-15.85,37.64C282,239,282.04,239.01,282.06,239.02L282.06,239.02z"/>
	<path class="st3" d="M297.41,193.26c0.14-0.07,0.33-0.16,0.47-0.23c-4.46-9.52-6.71-14.3-18.69-35.77
		c-0.13,0.06-0.3,0.14-0.43,0.19C294.03,186.3,294.03,186.3,297.41,193.26L297.41,193.26z"/>
	<path class="st3" d="M213.64,195.95c0.05,0.09,0.12,0.22,0.17,0.31c19.93-13.53,40.29-26.41,60.22-39.93
		c-0.13-0.16-0.29-0.37-0.4-0.54c-20.01,13.37-40.61,25.84-60.03,40.09C213.61,195.9,213.63,195.93,213.64,195.95L213.64,195.95z"/>
	<path class="st3" d="M214.26,198.39c0,0.13-0.01,0.31-0.01,0.44c9.93,0.13,9.93,0.13,81.23-1.11c-0.02-0.23-0.04-0.53-0.04-0.75
		c-27.06,0.47-54.12,0.87-81.18,1.37C214.26,198.35,214.26,198.37,214.26,198.39L214.26,198.39z"/>
	<path class="st3" d="M258.32,98.67c-0.19,0.01-0.39,0.02-0.58,0.03c1.6-0.02,3.2-0.04,4.8-0.05c-0.05-0.01-0.1-0.02-0.15-0.02
		c-1.34,0.02-2.68,0.03-4.02,0.04C258.35,98.67,258.33,98.67,258.32,98.67L258.32,98.67z"/>
	<path class="st3" d="M234.98,319.05c0.11,0.06,0.24,0.14,0.35,0.2c2.25-4.85,7.83-9.53,29.7-19.14c-0.09-0.19-0.11-0.23-0.18-0.44
		c-16.92,7.52-27.83,13.38-29.93,19.35C234.94,319.03,234.97,319.04,234.98,319.05L234.98,319.05z"/>
	<path class="st3" d="M265.97,322.94c0.07-0.01,0.17-0.02,0.24-0.02c0.79-3.3,1.98-8.29,1.95-21.46c-0.22,0.03-0.28,0.04-0.51,0.04
		C267.64,307.64,267.63,316.9,265.97,322.94L265.97,322.94z"/>
	<path class="st3" d="M259.86,328.11c-7.78-0.94-15.36-4.17-22.05-7.01C237.84,321.14,247.19,326.23,259.86,328.11L259.86,328.11z"
		/>
	<path class="st3" d="M260.54,328.16c0.08,0.01,0.15,0.01,0.23,0.02c-0.42-0.08-1.01-0.23-1.33-0.51c0.3-0.64,0.5-1.06,4.96-2.88
		c-0.01-0.06-0.02-0.11-0.02-0.17c-1.14,0.49-2.68,1.11-3.76,1.72c-0.47,0.27-1.04,0.74-1.36,1.17c0.29,0.51,0.3,0.52,1.24,0.64
		C260.52,328.15,260.53,328.15,260.54,328.16L260.54,328.16z"/>
	<path class="st3" d="M264.49,324.12c0.02-0.05,0.04-0.11,0.06-0.15c-9.32-1.55-18.71-2.61-28.06-3.97
		c0.37,0.26,0.37,0.26,3.67,0.75C248.26,321.94,256.39,322.91,264.49,324.12L264.49,324.12z"/>
	<path class="st3" d="M218.39,139.97c0.07,0.06,0.17,0.15,0.23,0.22c8.45-8.55,12.31-12.46,22.06-21.51
		c-0.12-0.09-0.15-0.11-0.24-0.21c-7.28,6.76-13.53,12.63-22.09,21.48C218.36,139.95,218.37,139.96,218.39,139.97L218.39,139.97z"/>
	<path class="st3" d="M265.07,297.3c0.06-0.1,0.15-0.23,0.21-0.33c-22.73-13.41-46.5-24.96-68.78-39.16
		c-0.02,0.12-0.04,0.27-0.06,0.39c7.84,5.22,9.7,6.46,20.34,12.52C232.75,279.81,249.09,288.23,265.07,297.3L265.07,297.3z"/>
	<path class="st3" d="M268.38,295.64c0.08,0.01,0.19,0.02,0.27,0.03c5.04-18.05,10.61-45.13,11.23-48.16
		c-0.31-0.03-0.39-0.03-0.7-0.09c-2.61,12.69-4.33,21.08-10.87,48.22C268.33,295.63,268.36,295.64,268.38,295.64L268.38,295.64z"/>
	<path class="st3" d="M276.45,241.21c0.11-0.2,0.26-0.45,0.39-0.64c-46.77-28.11-46.77-28.11-63.05-39.71
		c-0.1,0.2-0.24,0.47-0.36,0.66C228.96,212.44,228.96,212.44,276.45,241.21L276.45,241.21z"/>
	<path class="st3" d="M196.07,255.13c0.05,0.13,0.1,0.3,0.14,0.43c52.64-7.81,52.64-7.81,79.81-11.43
		c-0.02-0.22-0.05-0.51-0.05-0.72c-36.55,4.83-58.6,7.74-79.93,11.64C196.05,255.07,196.06,255.1,196.07,255.13L196.07,255.13z"/>
	<path class="st3" d="M264.13,100.48c0.05,0.02,0.1,0.05,0.14,0.07c-0.04-0.33-0.09-0.78-0.13-1.11c-0.24-0.19-0.57-0.44-0.81-0.63
		c-0.04-0.01-0.09-0.02-0.13-0.03c0.25,0.2,0.57,0.46,0.82,0.65c0.03,0.31,0.06,0.72,0.09,1.03
		C264.12,100.47,264.13,100.48,264.13,100.48L264.13,100.48z"/>
	<path class="st3" d="M241.25,103.1c-0.11,0.05-0.21,0.1-0.32,0.16c20.96-4.09,20.96-4.09,21.82-4.48c0.01-0.03,0.01-0.06,0.02-0.09
		c-0.05-0.01-0.11-0.02-0.15-0.03c-0.01,0.03-0.02,0.08-0.02,0.11c-0.38,0.15-0.38,0.15-21.29,4.3
		C241.29,103.08,241.27,103.09,241.25,103.1L241.25,103.1z"/>
	<path class="st3" d="M245.22,114.81c0.03,0.06,0.07,0.15,0.09,0.22c12.09-7.75,15.37-10.29,18.16-13.03
		c-0.05-0.04-0.11-0.09-0.16-0.14c-2.66,2.48-4.27,3.98-18.11,12.91C245.21,114.78,245.22,114.8,245.22,114.81L245.22,114.81z"/>
	<path class="st3" d="M241.38,115.39c0.14-0.13,0.23-0.21,0.37-0.33c-2.78-3.37-5.65-6.85-2.77-10.92
		c-0.54,0.23-2.23,1.31-1.32,5.58C237.93,110.99,239.18,112.89,241.38,115.39L241.38,115.39z"/>
	<path class="st3" d="M240.82,103.31c-0.11,0.05-0.22,0.11-0.34,0.16c5.75-0.52,22.39-2.05,22.54-2.06
		c-0.02-0.05-0.04-0.12-0.05-0.17c-7.37,0.68-14.74,1.31-22.1,2.04C240.86,103.29,240.84,103.3,240.82,103.31L240.82,103.31z"/>
	<path class="st3" d="M232.33,318.15c-8.99-7.39-25.73-21.13-37.72-58.11c-0.09,0.01-0.21,0.02-0.3,0.02
		C199.66,276.89,209.41,301.21,232.33,318.15L232.33,318.15z"/>
	<path class="st3" d="M164,217.45c0.03,0.17,0.06,0.4,0.09,0.57c12.56-6.62,20.86-10.27,42.45-17.62c-0.06-0.32-0.07-0.39-0.11-0.74
		c-20.98,7.14-30.5,11.1-42.44,17.69C163.99,217.39,164,217.42,164,217.45L164,217.45z"/>
	<path class="st3" d="M193.39,252.04c0.08,0.04,0.19,0.09,0.28,0.13c3.51-17.9,5.72-26.77,15.03-49.05
		c-0.18-0.08-0.41-0.21-0.58-0.3c-9.52,22.78-12.16,33.16-14.8,49.2C193.34,252.02,193.37,252.04,193.39,252.04L193.39,252.04z"/>
	<path class="st3" d="M209.8,194.33c0.14-0.03,0.34-0.05,0.49-0.07c0.19-20.88,0.63-29.79,4.74-47.78
		c-0.16,0.03-0.37,0.05-0.53,0.07C210.99,161.88,209.57,171.91,209.8,194.33L209.8,194.33z"/>
	<path class="st3" d="M206.95,196.64c0.15-0.3,0.2-0.38,0.38-0.65c-11.82-9.65-21.45-17.97-28.79-29.81
		c-0.18,0.26-0.23,0.33-0.41,0.57C183.58,175.07,188.84,182.08,206.95,196.64L206.95,196.64z"/>
	<path class="st3" d="M242.96,326.05c0.47,0.09,0.47,0.09,0.53,0.11c-3.66-1.25-6.55-2.24-8-5.35c-0.16-0.08-0.33-0.15-0.49-0.24
		c1.13,2.05,1.95,3.53,7.89,5.46C242.91,326.04,242.94,326.04,242.96,326.05L242.96,326.05z"/>
	<path class="st3" d="M232.12,318.48c-12.6-7.28-20.44-12-34.95-24.11c-0.01,0.06-0.03,0.14-0.04,0.2
		C204.85,300.98,214.45,308.95,232.12,318.48L232.12,318.48z"/>
	<path class="st3" d="M192.92,288.91c0.11,0.06,0.26,0.15,0.37,0.22c-2.3-10.18-2.95-15.37-0.62-29.52
		c-0.24-0.14-0.3-0.18-0.53-0.36c-1.88,12.3-2.06,18.62,0.72,29.63C192.88,288.89,192.9,288.9,192.92,288.91L192.92,288.91z"/>
	<path class="st3" d="M189.99,253.4c0.04-0.12,0.1-0.28,0.15-0.4c-10.6-10.64-18.26-18.33-26.26-31.11
		c-0.08,0.24-0.08,0.24-0.19,0.51C168.87,230.32,174.22,238.52,189.99,253.4L189.99,253.4z"/>
	<path class="st3" d="M240.7,102.68c0.15-0.05,0.3-0.09,0.45-0.14c2.24-0.79,5.16-2.06,7.46-2.66c2.02-0.52,4.8-0.82,6.87-1.04
		C246.99,99.53,242.26,101.9,240.7,102.68L240.7,102.68z"/>
	<path class="st3" d="M215.87,139.84c0.12-0.04,0.28-0.09,0.4-0.13c2.37-11.15,5.31-25.02,20.92-34.91
		C237.03,104.83,220.74,111.01,215.87,139.84L215.87,139.84z"/>
	<path class="st3" d="M215.42,109.93c-0.14,0.08-0.28,0.16-0.43,0.23c5.74-1.81,10.27-3.24,22.38-6.13
		c0.14-0.07,0.29-0.15,0.44-0.22c-11.93,2.82-16.4,4.18-22.33,6.07C215.47,109.91,215.44,109.92,215.42,109.93L215.42,109.93z"/>
	<path class="st3" d="M179.99,162.2c-0.01,0.14-0.03,0.32-0.05,0.45c7.82-4.73,15.91-9.63,32.45-17.75c-0.01-0.23-0.02-0.28,0-0.54
		c-9.11,4.53-20.44,10.17-32.4,17.77C179.99,162.15,179.99,162.18,179.99,162.2L179.99,162.2z"/>
	<path class="st3" d="M213.75,141.39c0.2-0.23,0.25-0.29,0.46-0.49c-9.2-11.2-12.47-19.58-1.96-29.27
		c-0.07,0.04-7.45,4.37-6.99,13.53C205.59,131.61,210.69,137.73,213.75,141.39L213.75,141.39z"/>
	<path class="st3" d="M165.31,151.29c1.85-2.62,4.32-6.12,6.32-8.64c0.06-0.1,0.13-0.19,0.2-0.29c-1.75,2.31-4.13,5.36-5.76,7.76
		C165.81,150.52,165.56,150.91,165.31,151.29L165.31,151.29z"/>
	<path class="st3" d="M173.83,139.74l0.01,0.07c0.16-0.19,0.32-0.38,0.48-0.56c0-0.02-0.01-0.05-0.01-0.07
		C174.15,139.36,173.99,139.55,173.83,139.74L173.83,139.74z"/>
	<path class="st3" d="M240.89,325.63c-11.14-3.46-27.97-8.69-44.53-30.71c-0.11-0.02-0.25-0.04-0.36-0.07
		c9.49,11.92,20.77,24.12,44.87,30.78C240.88,325.63,240.89,325.63,240.89,325.63L240.89,325.63z"/>
	<path class="st3" d="M241.4,325.84c-15.8-4.41-19.56-5.46-33.03-12.13C208.45,313.77,219.14,320.48,241.4,325.84L241.4,325.84z"/>
	<path class="st3" d="M151.39,182c2-4.46,5.12-8.77,23.07-16.35c0.06-0.28,0.08-0.36,0.18-0.66c-13.06,5.63-20.6,9.89-23.03,16.26
		C151.53,181.5,151.46,181.75,151.39,182L151.39,182z"/>
	<path class="st3" d="M162.13,214.36c0.07,0.02,0.16,0.06,0.23,0.09c1.87-13.37,3.64-26,12.98-46.15c-0.1-0.04-0.24-0.08-0.34-0.13
		c-4.99,11.37-10.64,24.25-12.92,46.17C162.1,214.35,162.12,214.36,162.13,214.36L162.13,214.36z"/>
	<path class="st3" d="M175.61,162.81c0.18-0.28,0.22-0.35,0.4-0.61c-4.12-6.64-6.93-12.43-2.47-21.37
		C171.89,142.76,167.18,150.02,175.61,162.81L175.61,162.81z"/>
	<path class="st3" d="M177.52,160.72c0.13-0.08,0.31-0.17,0.45-0.24c2.8-11.8,7.5-31.55,32.42-47.97
		C210.14,112.61,184.97,125.08,177.52,160.72L177.52,160.72z"/>
	<path class="st3" d="M191.23,288.6c-9.9-14.07-23.46-33.33-28.5-65.05c-0.09,0.03-0.22,0.07-0.31,0.11
		C164.71,235.9,169.47,261.38,191.23,288.6L191.23,288.6z"/>
	<path class="st3" d="M203.16,310.42c0.14,0.08,0.27,0.15,0.41,0.23c-6.28-6.29-7.91-9.25-9.18-16.68
		c-0.19-0.14-0.29-0.22-0.52-0.42c1.29,7.24,2.66,10.33,9.23,16.83C203.11,310.39,203.14,310.41,203.16,310.42L203.16,310.42z"/>
	<path class="st3" d="M154.4,253.9c5.41,11.81,12.88,21.1,36.8,36.33c-0.05-0.12-0.07-0.31-0.16-0.41
		c-1.43-1.44-3.97-2.58-5.67-3.68c-23.22-15.05-28.65-27.22-31.27-33.07C154.19,253.35,154.29,253.62,154.4,253.9L154.4,253.9z"/>
	<path class="st3" d="M148.07,197.85c-0.06,4.53-0.13,10.18,11.76,19.96c0.02-0.32,0.03-0.42,0.08-0.74
		c-6.9-6.02-12.54-11.68-11.72-20.02C148.15,197.31,148.11,197.58,148.07,197.85L148.07,197.85z"/>
	<path class="st3" d="M150.61,241.95c-0.68-4.89-1.45-10.44,9.48-20.87c-0.07-0.31-0.09-0.4-0.15-0.74
		c-5.09,5.11-11.43,11.48-9.53,20.83C150.48,241.42,150.55,241.69,150.61,241.95L150.61,241.95z"/>
	<path class="st3" d="M261.84,328.21c-0.13,0-0.27,0-0.4,0c0.01,0,0.02,0,0.02,0c-0.11,0-0.22,0-0.33-0.01c-0.07,0-0.14,0-0.21,0.01
		c0.16,0.01,0.32,0.01,0.48,0.01C261.55,328.21,261.69,328.21,261.84,328.21L261.84,328.21z"/>
	<path class="st3" d="M260.99,328.2c-1.62-0.07-6.35-0.37-15.33-1.58C246.76,326.84,255.17,327.93,260.99,328.2L260.99,328.2z"/>
	<path class="st3" d="M223.8,321.74c3.75,1.22,8.42,2.74,19.64,4.58c-16.69-3.57-16.69-3.57-20.38-4.85
		C223.31,321.56,223.55,321.65,223.8,321.74L223.8,321.74z"/>
	<path class="st3" d="M255.87,328.06c-2.69-0.16-7.19-0.44-10.33-1.33c-0.22-0.04-0.44-0.08-0.66-0.12c1.5,0.4,3.76,1.02,10.2,1.41
		C255.34,328.03,255.61,328.05,255.87,328.06L255.87,328.06z"/>
	<path class="st3" d="M161.88,269.84c5.52,8.86,15.79,25.36,39.76,40.12c-1.73-1.86-4.91-3.32-7.03-4.73
		c-3.45-2.29-21.28-14.82-33.56-36.88C161.32,268.85,161.6,269.35,161.88,269.84L161.88,269.84z"/>
	<path class="st3" d="M213.77,317.66c-3.39-1.71-5.26-2.66-7.5-4.66c-0.2-0.11-0.41-0.23-0.61-0.35c2.4,1.92,3.61,2.88,7.39,4.67
		C213.29,317.44,213.53,317.55,213.77,317.66L213.77,317.66z"/>
	<path class="st3" d="M189.32,302.35c4.61,3.45,6.72,5.03,13.66,8.63c-0.16-0.11-0.32-0.24-0.49-0.34c-1.3-0.84-3.18-1.73-4.54-2.47
		c-2.68-1.46-6.15-3.84-9.29-6.36C188.87,301.99,189.09,302.17,189.32,302.35L189.32,302.35z"/>
	<path class="st3" d="M258.91,98.63c-0.81,0.02-1.13,0.04-1.31,0.07c1.48-0.07,1.48-0.07,2.09-0.09
		C259.43,98.61,259.17,98.62,258.91,98.63L258.91,98.63z"/>
	<path class="st3" d="M237.16,101.26c-9.32,2.32-14.23,3.8-22.21,8.34c3.07-1.39,5.92-3.24,9.1-4.41c5.38-1.99,6.91-2.47,14.05-4.13
		C237.79,101.12,237.47,101.19,237.16,101.26L237.16,101.26z"/>
	<path class="st3" d="M217.04,108.97c-0.05,0.04-0.12,0.08-0.17,0.12c9.71-3.98,20.72-8.5,37.47-10.16c0.09-0.01,0.21-0.02,0.3-0.03
		c-9.36,1.14-19.96,2.44-37.58,10.05C217.06,108.96,217.05,108.96,217.04,108.97L217.04,108.97z"/>
	<path class="st3" d="M213.88,109.09c-0.36,0.21-0.88,0.48-1.11,0.83c-0.12,0.18-0.01,0.52,0.08,0.71c0.21-0.11,0.42-0.22,0.64-0.33
		c-0.08-0.24-0.11-0.63,0.04-0.84c0.21-0.3,0.7-0.51,1.03-0.68C214.33,108.88,214.1,108.99,213.88,109.09L213.88,109.09z"/>
	<path class="st3" d="M178.6,134.39l-2.83,3.2c0.59-0.64,0.59-0.64,3.5-3.9C179.05,133.93,178.83,134.16,178.6,134.39L178.6,134.39z
		"/>
	<path class="st3" d="M176.96,136.61c-0.03,0.05-0.08,0.11-0.11,0.16c7.36-7.14,15.7-15.23,32.85-24.24
		c0.06-0.05,0.14-0.12,0.2-0.17c-9.05,5-20.32,11.23-32.93,24.22C176.97,136.59,176.97,136.61,176.96,136.61L176.96,136.61z"/>
	<path class="st3" d="M344.48,135.35c1.86,2.02,3.08,3.16,3.36,3.12c0.16-0.59-5.07-6.23-5.95-6.42c-0.01,0-0.02,0.01-0.03,0.01
		C341.78,132.27,342.67,133.38,344.48,135.35L344.48,135.35z"/>
	<path class="st3" d="M340.61,295.07c-2.61,2.66-2.48,2.88-2.37,2.89c0.71,0.04,6.56-5.78,6.2-6.17c-0.01-0.01-0.03-0.01-0.05-0.02
		C344.2,291.8,343.46,292.17,340.61,295.07L340.61,295.07z"/>
	<path class="st3" d="M298.92,321.54c-3.46,1.29-3.46,1.29-3.59,1.36c0.66,0.09,7.51-2.49,8.18-2.97c0-0.01,0-0.02,0-0.03
		C303.24,319.93,303.24,319.93,298.92,321.54L298.92,321.54z"/>
	<path class="st3" d="M289.42,102.31c4.33,1.19,4.33,1.19,4.42,1.2c-0.31-0.35-7.24-2.16-8.42-2.28c0.06,0.04,0.07,0.04,1.21,0.34
		C287.1,101.69,288.23,101.99,289.42,102.31L289.42,102.31z"/>
	<path class="st3" d="M367.17,190.33c0.73,3.2,1.97,4.56,2.6,3.63c0.96-1.42-0.44-8.51-2.23-8.64
		C366.46,185.49,366.67,188.13,367.17,190.33L367.17,190.33z"/>
	<path class="st3" d="M317.14,307.28c-1.95,1.67-2.16,2.31-1.71,2.37c1.41,0.16,7.19-4.29,6.51-5.01c-0.07-0.07-0.16-0.08-0.26-0.08
		C320.8,304.59,319.07,305.64,317.14,307.28L317.14,307.28z"/>
	<path class="st3" d="M356.17,230.43c-0.22,3.44,1.45,4.73,2.97,3.38c2.14-1.91,2.54-8.45-0.06-8.6
		C357.58,225.25,356.36,227.45,356.17,230.43L356.17,230.43z"/>
	<path class="st3" d="M336.56,157.72c1.63,3.84,4.7,4.83,5.36,3.05c0.7-1.9-1.78-6.75-4.57-6.88
		C335.95,153.91,335.62,155.49,336.56,157.72L336.56,157.72z"/>
	<path class="st3" d="M331.07,269.49c-1.09,3.01,0.37,4.27,2.36,3.35c2.92-1.36,4.71-6.57,2.53-7.34c-0.23-0.08-0.41-0.09-0.59-0.1
		C333.65,265.47,331.92,267.12,331.07,269.49L331.07,269.49z"/>
	<path class="st3" d="M292.49,107.75c2.81,1.69,4.15,1.84,4.12,1.44c-0.07-0.79-4.59-3.21-6.13-3.28c-0.18,0.02-0.47,0.04,0.19,0.6
		C291,106.8,291.68,107.26,292.49,107.75L292.49,107.75z"/>
	<path class="st3" d="M271.83,327.23c-0.88,0.17-1.77,0.25-2.63,0.49c0.6,0.03,5.63-0.78,6.38-1.19c-0.01-0.01-0.03-0.02-0.04-0.03
		C275.45,326.51,275.45,326.51,271.83,327.23L271.83,327.23z"/>
	<path class="st3" d="M288.45,317.58c-1.21,1.04-1.53,1.7-0.84,1.74c1.71,0.1,5.99-2.89,5.2-3.64c-0.06-0.05-0.18-0.12-0.44-0.12
		C291.36,315.6,289.86,316.38,288.45,317.58L288.45,317.58z"/>
	<path class="st3" d="M261.84,328.21c0.18,0,0.35,0,0.53-0.01l0,0C262.18,328.21,262.01,328.21,261.84,328.21L261.84,328.21
		L261.84,328.21z"/>
	<path class="st3" d="M295.45,197.33c0.25,4.66,5.14,5.65,7.32,3.3c1.97-2.13,1.39-7.63-3.33-7.89
		C296.91,192.79,295.31,194.64,295.45,197.33L295.45,197.33z"/>
	<path class="st3" d="M262.46,98.63c0.22,0.03,0.41,0.07,0.64,0.12c0.33,0.07,0.54,0.11,0.6,0.09c-0.07-0.09-0.89-0.26-1.87-0.26
		l0,0C261.92,98.59,262.15,98.59,262.46,98.63L262.46,98.63z"/>
	<path class="st3" d="M275.97,243.21c-0.11,4.44,4.79,5.38,7.29,3.17c2.42-2.15,1.98-7.27-2.34-7.59c-0.11-0.01-0.25-0.01-0.36-0.01
		C277.26,238.95,276.03,241.18,275.97,243.21L275.97,243.21z"/>
	<path class="st3" d="M273.06,154.16c0.49,3.86,5.34,4.46,7.09,2.34c1.51-1.83,0.59-6.17-3.54-6.34c0,0,0,0,0,0c0,0,0,0,0,0
		c0,0,0,0,0,0c0,0,0,0,0,0c0,0,0,0,0,0c0,0,0,0,0,0c0,0,0,0,0,0c0,0,0,0,0,0C274.22,150.18,272.77,151.83,273.06,154.16
		L273.06,154.16z"/>
	<path class="st3" d="M264.45,324.26c-0.29,1.04,0.62,1.31,1.55,0.78c0.93-0.53,1.59-1.77,0.61-2.07c-0.14-0.04-0.26-0.05-0.37-0.05
		C265.52,322.94,264.7,323.35,264.45,324.26L264.45,324.26z"/>
	<path class="st3" d="M262.98,101.23c0.14,0.62,0.67,1.03,1.38,1.06h0h0c0,0,0,0,0,0h0h0c0,0,0,0,0,0h0h0
		c0.96-0.01,0.95-0.83,0.28-1.46c-0.15-0.14-0.54-0.46-1.05-0.48C262.8,100.38,262.95,101.14,262.98,101.23L262.98,101.23z"/>
	<path class="st3" d="M264.72,298.77c0,2.86,3.49,3.59,5.33,1.75c1.67-1.68,1.23-4.87-1.94-4.89
		C265.61,295.75,264.72,297.33,264.72,298.77L264.72,298.77z"/>
	<path class="st3" d="M240.39,116.82c-0.83,1.92,0.86,2.47,2.4,1.91c2.13-0.78,3.4-3.7,1.91-4.39c-0.27-0.12-0.5-0.13-0.73-0.15
		C242.25,114.28,240.91,115.61,240.39,116.82L240.39,116.82z"/>
	<path class="st3" d="M261.3,328.21c0.18,0,0.36,0.01,0.53,0.01c-0.75,0-1.27-0.05-1.93-0.12c-0.13-0.01-0.25-0.03-0.38-0.04
		c0,0-0.01,0-0.01,0C259.61,328.09,260.31,328.18,261.3,328.21L261.3,328.21z"/>
	<path class="st3" d="M206.41,198.91c-0.2,4.43,4.03,5.53,6.32,3.43c2.24-2.06,2.44-7.83-2.13-8.1
		C208.68,194.26,206.56,195.73,206.41,198.91L206.41,198.91z"/>
	<path class="st3" d="M212.68,143.2c-1.15,2.99,1.15,3.94,3.25,2.98c2.83-1.29,4.18-5.63,2-6.45c-0.33-0.12-0.63-0.13-0.81-0.14
		C215.32,139.62,213.49,141.1,212.68,143.2L212.68,143.2z"/>
	<path class="st3" d="M233.94,319.99c2.03,1.22,4.07,1.82,3.99,1.32c-0.11-0.66-3.93-3.16-5.45-3.17c-0.49,0.01-0.51,0.29-0.06,0.74
		C232.83,319.3,233.55,319.76,233.94,319.99L233.94,319.99z"/>
	<path class="st3" d="M190.25,256.51c1.3,3.7,5.01,4.62,6.02,2.24c0.89-2.08-0.71-6.89-4.14-6.99
		C189.74,251.91,189.49,254.32,190.25,256.51L190.25,256.51z"/>
	<path class="st3" d="M238.41,103.55c-1.7,0.74-2.29,1.24-1.98,1.33c0.64,0.19,6.06-2.12,6.04-2.57c-0.03-0.01-0.08-0.02-0.12-0.03
		C241.7,102.32,239.93,102.89,238.41,103.55L238.41,103.55z"/>
	<path class="st3" d="M192.39,292.04c2.13,2.61,4.63,3.61,4.77,2.36c0.17-1.47-3.24-5.79-5.52-5.89
		C190.62,288.53,190.54,289.77,192.39,292.04L192.39,292.04z"/>
	<path class="st3" d="M174.85,164.37c-1.21,3.12-0.09,4.58,1.68,3.74c2.68-1.26,4.65-7.06,2.63-7.75c-0.15-0.05-0.3-0.06-0.4-0.06
		C177.36,160.35,175.76,162.02,174.85,164.37L174.85,164.37z"/>
	<path class="st3" d="M257.77,98.69c-2.03,0.1-3.51,0.25-3.74,0.28c2.6-0.08,5.18-0.38,7.78-0.38
		C260.46,98.59,259.1,98.62,257.77,98.69L257.77,98.69z"/>
	<path class="st3" d="M244.4,326.52c2.09,0.41,4.02,0.68,4.24,0.68c-0.04-0.01-7.41-1.55-7.81-1.57
		C240.98,325.8,243.3,326.3,244.4,326.52L244.4,326.52z"/>
	<path class="st3" d="M159.83,219.2c0.23,4.07,2.23,5.3,3.41,3.95c1.68-1.92,1.05-8.75-1.43-8.83
		C160.25,214.42,159.69,216.84,159.83,219.2L159.83,219.2z"/>
	<path class="st3" d="M212.49,110.82c-1.3,0.69-2.84,1.6-2.9,1.89c0.34,0.24,7.33-3.35,7.63-3.92c-0.02-0.01-0.04-0.02-0.05-0.03
		C216.6,108.83,214.5,109.75,212.49,110.82L212.49,110.82z"/>
	<path class="st3" d="M204.69,312.08c1.79,1.09,3.89,2.19,4.17,2.09c-0.12-0.44-6.59-4.42-7.36-4.52c-0.01,0-0.03,0.01-0.05,0.01
		C201.36,309.91,203.07,311.09,204.69,312.08L204.69,312.08z"/>
	<path class="st3" d="M174,139.62c-0.87,1.04-2.52,3.08-2.53,3.38c0.35-0.01,5.65-6.29,5.67-6.72c0,0-0.01,0-0.01,0
		C176.83,136.38,175.31,138.06,174,139.62L174,139.62z"/>
</g>
<text transform="matrix(0.5218 0 0 1 430.4858 237.6394)"><tspan x="0" y="0" class="st4 st5 st6">GLOBAL</tspan><tspan x="556.36" y="0" class="st2 st5 st6">TRADE</tspan></text>
<g>
	<path class="st3" d="M240.78,345.77c-17.7-3.46-34.79-10.08-50.26-19.59c-1.95-1.17-3.8-2.48-5.72-3.71
		c-1.89-1.27-3.68-2.67-5.54-3.99c-1.83-1.36-3.58-2.82-5.37-4.23c-1.76-1.46-3.44-3-5.17-4.5c-6.74-6.18-12.94-13.02-18.38-20.46
		c-10.87-14.88-18.78-32.13-22.63-50.35c-1.94-9.1-2.93-18.41-2.91-27.72c-0.02-9.31,1.06-18.6,2.94-27.68
		c1.95-9.07,4.84-17.93,8.56-26.39c3.75-8.45,8.32-16.5,13.63-24c5.32-7.49,11.3-14.48,17.9-20.79
		c6.56-6.35,13.72-12.06,21.32-17.06c15.19-10.02,32.18-17.27,49.99-21.12c2.24-0.43,4.46-0.94,6.71-1.29
		c2.26-0.32,4.5-0.72,6.77-0.96c2.27-0.21,4.53-0.53,6.81-0.67c2.28-0.11,4.56-0.3,6.84-0.34c9.13-0.21,18.32,0.37,27.37,1.88
		c18.09,3.04,35.79,9.53,51.45,19.5c15.69,9.91,29.32,23.13,39.92,38.46c5.3,7.67,9.86,15.86,13.57,24.44
		c3.7,8.58,6.56,17.53,8.51,26.69c3.96,18.31,4.01,37.46,0.39,55.82c-3.66,18.36-10.99,36.01-21.55,51.41
		c-1.29,1.94-2.75,3.77-4.11,5.66c-1.41,1.86-2.93,3.63-4.39,5.44c-1.51,1.77-3.13,3.45-4.69,5.17c-1.6,1.68-3.29,3.29-4.93,4.93
		c-6.71,6.43-14.13,12.06-21.96,16.94c-7.85,4.86-16.16,8.88-24.74,12.1c-2.17,0.75-4.31,1.55-6.48,2.24
		c-2.2,0.64-4.36,1.34-6.57,1.92c-2.22,0.53-4.41,1.16-6.63,1.63c-2.24,0.43-4.45,0.95-6.69,1.31
		C276.82,349.48,258.49,349.22,240.78,345.77z M240.99,344.69c17.58,3.37,35.86,3,53.15-1.19c17.32-4.09,33.55-11.93,47.62-22.32
		c7.06-5.18,13.53-11.08,19.47-17.41c1.44-1.63,2.92-3.21,4.31-4.87c1.35-1.7,2.76-3.34,4.06-5.07c1.28-1.75,2.62-3.44,3.85-5.22
		c1.19-1.8,2.44-3.56,3.59-5.39c4.63-7.29,8.58-14.99,11.74-23c3.14-8.02,5.57-16.31,7.16-24.77c3.21-16.92,3.16-34.39-0.12-51.29
		c-3.29-16.89-9.95-33.16-19.44-47.61c-19.02-28.91-49.5-50.24-83.9-57.87c-17.16-3.8-35.2-4.26-52.61-0.87
		c-17.4,3.33-34.16,10.31-48.75,20.4c-7.28,5.07-14.02,10.88-20.11,17.29c-6.04,6.45-11.46,13.46-16.04,20.96
		c-9.22,14.98-15.31,31.66-18.26,48.78c-2.96,17.13-2.76,34.7,0.54,51.71c3.33,16.99,9.65,33.48,18.89,48.38
		c4.62,7.45,9.95,14.5,15.97,20.97c1.54,1.58,3.05,3.2,4.63,4.74c1.62,1.5,3.2,3.06,4.87,4.52c1.7,1.42,3.37,2.89,5.12,4.25
		c1.78,1.32,3.51,2.72,5.34,3.99C206.56,334.16,223.42,341.3,240.99,344.69z"/>
</g>
<g>
	<path class="st2" d="M234.5,345.3c-17.6-3.45-34.61-10.06-49.87-19.68c-7.63-4.8-14.82-10.33-21.45-16.51
		c-6.62-6.19-12.67-13.03-17.98-20.44c-5.28-7.43-9.9-15.37-13.57-23.76c-0.87-2.12-1.8-4.21-2.62-6.35
		c-0.76-2.16-1.6-4.29-2.31-6.48c-0.64-2.2-1.35-4.38-1.92-6.6c-0.53-2.23-1.14-4.44-1.59-6.69c-3.86-17.95-3.78-36.73-0.08-54.66
		c1.88-8.97,4.67-17.73,8.29-26.12c3.64-8.38,8.09-16.38,13.27-23.85c5.18-7.48,11.08-14.42,17.59-20.72
		c6.47-6.33,13.54-12.02,21.07-17.02c15.03-10.01,31.94-17.15,49.61-20.93c2.22-0.41,4.43-0.92,6.66-1.26
		c2.24-0.3,4.47-0.7,6.72-0.93c2.25-0.2,4.5-0.51,6.75-0.64c2.26-0.1,4.52-0.28,6.78-0.31c9.06-0.2,18.15,0.51,27.1,2.07
		c17.89,3.13,35.32,9.7,50.73,19.61c15.44,9.86,28.84,22.94,39.24,38.1c10.4,15.16,17.82,32.39,21.64,50.43
		c1.94,9.02,2.89,18.24,2.93,27.47c0.04,9.22-0.79,18.46-2.57,27.5c-3.65,18.06-10.72,35.49-21.12,50.69
		c-1.27,1.91-2.68,3.73-4.02,5.6c-1.37,1.84-2.86,3.6-4.29,5.39c-1.48,1.76-3.06,3.42-4.59,5.14c-1.57,1.67-3.22,3.27-4.83,4.9
		c-6.57,6.39-13.85,12.02-21.54,16.91c-7.71,4.88-15.87,8.99-24.33,12.26c-2.14,0.76-4.25,1.58-6.4,2.29
		c-2.17,0.66-4.31,1.38-6.49,1.97c-2.19,0.55-4.36,1.19-6.56,1.68c-2.21,0.45-4.41,0.98-6.63,1.36c-8.88,1.56-17.88,2.4-26.86,2.28
		C252.28,347.93,243.3,347.06,234.5,345.3z M234.66,344.51c8.77,1.62,17.69,2.44,26.6,2.3c8.9-0.2,17.79-1.2,26.43-3.23
		c17.32-3.94,33.65-11.55,47.9-21.78c7.13-5.13,13.69-10.98,19.71-17.29c1.46-1.62,2.96-3.2,4.38-4.86c1.37-1.69,2.8-3.34,4.13-5.06
		c1.3-1.74,2.67-3.44,3.92-5.22c1.21-1.81,2.5-3.56,3.65-5.4c4.67-7.33,8.69-15.06,11.92-23.12c3.22-8.05,5.64-16.42,7.25-24.95
		c1.6-8.52,2.46-17.18,2.42-25.85c-0.03-8.66-0.92-17.32-2.57-25.83c-3.33-17.02-10.08-33.39-19.71-47.89
		c-9.64-14.49-22.12-27.1-36.54-36.95c-7.21-4.93-14.91-9.17-22.95-12.65c-8.05-3.47-16.46-6.16-25.07-8.02
		c-8.62-1.82-17.42-2.81-26.25-2.93c-2.21-0.05-4.42,0.06-6.63,0.07c-2.21,0.06-4.41,0.27-6.62,0.41c-2.2,0.18-4.39,0.53-6.59,0.78
		c-2.19,0.29-4.36,0.74-6.55,1.1c-17.39,3.37-34.08,10.4-48.7,20.42c-7.3,5.03-14.07,10.81-20.18,17.18
		c-6.08,6.41-11.52,13.41-16.21,20.86c-9.4,14.89-15.65,31.6-18.73,48.78c-1.56,8.6-2.23,17.32-2.2,26.03
		c0.06,8.71,0.99,17.4,2.64,25.96c0.4,2.14,0.95,4.25,1.42,6.38c0.51,2.12,1.16,4.2,1.73,6.31c0.6,2.1,1.32,4.16,1.97,6.24
		c0.71,2.06,1.52,4.09,2.28,6.14c3.27,8.1,7.21,15.97,11.94,23.37c9.41,14.82,21.73,27.98,36.34,38.1
		C200.35,334.05,217.13,341.15,234.66,344.51z"/>
</g>
</svg>
